<?xml version="1.0" encoding="UTF-8" standalone="no"?>
<!-- Created with Inkscape (http://www.inkscape.org/) -->

<svg
   width="210mm"
   height="297mm"
   viewBox="0 0 210 297"
   version="1.1"
   id="svg1"
   inkscape:version="1.4.2 (ebf0e94, 2025-05-08)"
   sodipodi:docname="dibujo.svg"
   xmlns:inkscape="http://www.inkscape.org/namespaces/inkscape"
   xmlns:sodipodi="http://sodipodi.sourceforge.net/DTD/sodipodi-0.dtd"
   xmlns="http://www.w3.org/2000/svg"
   xmlns:svg="http://www.w3.org/2000/svg">
  <sodipodi:namedview
     id="namedview1"
     pagecolor="#ffffff"
     bordercolor="#000000"
     borderopacity="0.25"
     inkscape:showpageshadow="2"
     inkscape:pageopacity="0.0"
     inkscape:pagecheckerboard="0"
     inkscape:deskcolor="#d1d1d1"
     inkscape:document-units="mm"
     inkscape:zoom="1.0167041"
     inkscape:cx="338.3482"
     inkscape:cy="538.50476"
     inkscape:window-width="1920"
     inkscape:window-height="1009"
     inkscape:window-x="-8"
     inkscape:window-y="-8"
     inkscape:window-maximized="1"
     inkscape:current-layer="layer1" />
  <defs
     id="defs1" />
  <circle
     style="fill:#000000;fill-opacity:1;stroke-width:0.775548"
     id="path4"
     cx="104.80119"
     cy="136.28978"
     r="103.5" />
  <g
     inkscape:label="Capa 1"
     inkscape:groupmode="layer"
     id="layer1">
    <path
       style="opacity:1;mix-blend-mode:normal;fill:#ffffff;fill-opacity:1;stroke-width:0.957683"
       id="path2"
       d="m 40.958741,53.641007 c 3.900447,16.388571 8.56759,32.583837 13.107155,48.805293 5.362068,18.77538 9.929782,37.7764 16.11293,56.30933 4.563046,13.1818 10.948092,25.64921 17.396149,37.99781 3.62893,6.71797 7.187595,13.48773 11.094538,20.05256 1.482207,2.79091 3.254217,5.41039 4.866237,8.12469 1.13378,2.11021 2.12026,4.31132 3.51641,6.26788 4.54861,2.03216 8.83542,4.78982 13.64591,6.09642 0.79324,0.21562 0.9909,-1.308 1.4233,-2.00347 3.07838,-4.95081 4.89539,-10.5051 6.686,-16.00142 3.98379,-13.04417 7.19206,-26.30661 10.50267,-39.53149 2.27052,-10.20463 4.63302,-20.37726 7.2101,-30.50965 2.59994,-8.96358 4.64339,-18.05353 6.7866,-27.1306 0.93952,-5.12137 2.53732,-10.09451 3.6791,-15.16687 0.46191,-2.05187 0.96692,-5.06363 1.33165,-7.135713 1.13571,-6.217174 2.00354,-12.477021 3.00579,-18.716471 0.76419,-6.162923 1.32653,-12.348194 2.03276,-18.517311 0.22804,-2.738365 0.9051,-5.403522 1.47015,-8.083911 0,0 -12.55352,-6.671617 -12.55352,-6.671617 v 0 c -0.52136,2.749797 -1.12443,5.491618 -1.33236,8.28906 -0.7,6.151831 -1.17827,12.329127 -1.9904,18.468468 -0.9998,6.246739 -1.83267,12.514563 -2.90453,18.749221 -1.29088,7.510114 -3.27425,14.869204 -4.77162,22.339664 -2.11727,9.07482 -4.36181,18.10677 -6.78242,27.10616 -2.56038,10.16629 -4.91886,20.36656 -6.98014,30.64618 -3.1422,13.21433 -6.27058,26.45966 -10.59102,39.35332 -1.53516,4.40435 -3.07587,8.70513 -5.36905,12.78875 -0.48608,0.86551 -0.9993,1.71927 -1.57938,2.52554 -0.37052,0.51499 -1.74941,1.01642 -1.26311,1.42522 3.47749,2.92367 7.70888,4.82306 11.56337,7.23457 -1.74658,-1.62303 -2.61039,-3.96155 -3.6911,-6.04058 -1.56474,-2.81113 -3.49611,-5.39474 -5.01031,-8.2365 -4.19718,-6.56108 -7.91604,-13.4241 -11.700571,-20.22331 C 93.247312,189.95864 86.790825,177.52898 82.148903,164.3331 75.56012,145.78068 70.671868,126.7128 65.331956,107.77999 60.990699,91.89714 56.32604,75.994161 53.847701,59.695775 Z" />
    <path
       style="mix-blend-mode:normal;fill:#ffffff;fill-opacity:1;stroke-width:0.960377"
       id="path3"
       d="m 54.1194,222.92332 c 2.584467,-9.72732 5.747497,-19.22119 9.137858,-28.57912 0.77696,-2.10239 1.571817,-4.19538 2.330847,-6.30718 0.895478,-2.49134 1.734628,-5.0114 2.632389,-7.50161 2.627506,-7.28803 5.483236,-14.45129 7.897679,-21.84944 0.839589,-2.57267 1.603926,-5.17991 2.405935,-7.7698 2.944073,-10.27298 6.252001,-20.39957 9.0932,-30.71549 1.752228,-6.362 1.935094,-7.51231 3.385919,-13.93133 2.102317,-9.53151 3.769317,-19.186086 5.358357,-28.855079 0.931362,-5.577906 1.309927,-11.261474 1.816799,-16.911165 0.353767,-5.264692 1.236541,-10.423682 2.245897,-15.551618 0.53705,-0.633134 0.0217,-2.083138 0.58108,-2.74979 0.11865,-0.141026 0.4331,0.582871 0.28232,0.496733 -3.559904,-2.034447 -6.897333,-4.649693 -10.568763,-6.375355 -0.640722,-0.300933 0.860788,1.292184 1.232411,1.987079 0.463307,0.866235 0.845025,1.791484 1.267553,2.68721 2.77166,6.410481 4.861478,13.203566 6.987219,19.948036 2.57961,8.115544 4.14591,16.593063 5.72078,25.04556 1.33311,6.540721 1.81384,13.286703 3.14733,19.824449 0.71967,3.5285 2.85409,12.17829 3.65339,15.47439 4.34252,16.08196 9.79385,31.70033 15.62219,47.0785 2.19383,6.46739 5.29598,12.41249 7.64152,18.78575 1.68537,5.25965 3.22532,10.58852 4.77925,15.90717 1.15535,4.20416 2.7591,8.18767 4.26217,12.21931 0.50232,1.32992 1.0034,2.65887 1.53495,3.97228 0,0 11.92657,6.41878 11.92657,6.41878 v 0 c -0.62948,-1.25667 -1.10151,-2.57921 -1.63942,-3.89577 -1.49205,-4.0528 -3.26156,-7.95657 -4.43488,-12.17291 -1.54044,-5.34817 -3.18539,-10.65056 -4.73403,-15.99476 -2.24857,-6.61733 -5.73478,-12.50438 -8.07464,-19.08498 -6.13031,-15.26289 -11.88449,-30.7926 -16.00243,-47.03081 -1.3244,-5.71608 -2.25884,-9.45567 -3.33366,-15.16236 -1.23237,-6.54325 -1.73222,-13.248054 -3.01467,-19.782739 -1.57654,-8.470406 -3.01596,-17.001015 -5.52271,-25.171176 -2.13196,-6.759354 -4.18137,-13.580036 -6.83269,-20.077905 -0.38259,-0.919249 -0.75297,-1.84596 -1.14776,-2.75775 -0.32176,-0.743084 -0.42243,-1.738655 -1.00148,-2.206152 -0.3158,-0.254883 -10.642017,-12.379877 -13.222478,-7.640515 -0.199547,0.366472 -0.501975,2.567162 -0.550933,2.882232 -0.898993,5.229028 -1.735484,10.470376 -2.132911,15.797252 -0.609871,5.607782 -0.987694,11.251047 -1.771319,16.829809 -1.387404,9.738176 -2.738239,19.495215 -4.821891,29.065275 -1.429278,6.481599 -1.57345,7.449529 -3.276999,13.891939 -2.736515,10.34876 -6.049505,20.46277 -9.003647,30.72182 -1.587946,4.98751 -3.130044,9.97955 -4.875179,14.89255 -3.380473,9.51686 -7.098937,18.8611 -10.542465,28.34495 -3.433245,9.29356 -6.576095,18.73556 -9.877537,28.09551 z" />
  </g>
</svg>
