<?xml version="1.0" standalone="no"?>
<!DOCTYPE svg PUBLIC "-//W3C//DTD SVG 20010904//EN"
 "http://www.w3.org/TR/2001/REC-SVG-20010904/DTD/svg10.dtd">
<svg version="1.0" xmlns="http://www.w3.org/2000/svg"
 width="1033.000000pt" height="645.000000pt" viewBox="0 0 1033.000000 645.000000"
 preserveAspectRatio="xMidYMid meet">

<g transform="translate(0.000000,645.000000) scale(0.100000,-0.100000)"
fill="#000000" stroke="none">
<path d="M4701 6227 c-5 -5 -32 -10 -60 -10 -28 -1 -51 -4 -51 -7 0 -3 -8 -6
-17 -7 -10 -1 -31 -4 -48 -8 -27 -6 -118 -14 -172 -16 -13 -1 -23 -5 -23 -10
0 -4 -7 -6 -15 -3 -8 4 -15 2 -15 -4 0 -6 -10 -8 -22 -4 -12 3 -19 1 -15 -5 3
-5 -8 -10 -26 -10 -122 -4 -164 -9 -176 -21 -7 -7 -20 -11 -27 -8 -7 3 -18 -3
-23 -12 -7 -12 -10 -13 -11 -3 0 9 -8 11 -24 7 -12 -3 -41 -8 -62 -12 -21 -3
-45 -11 -51 -16 -9 -7 -13 -7 -13 2 0 10 -3 10 -14 1 -8 -7 -26 -10 -40 -7
-18 3 -26 0 -26 -10 0 -8 -5 -12 -11 -9 -19 12 -119 -5 -119 -20 0 -8 -5 -17
-10 -20 -6 -4 -10 -3 -9 2 3 20 -2 24 -17 12 -9 -7 -25 -15 -37 -16 -12 -2
-24 -8 -27 -13 -3 -4 -12 -8 -20 -8 -41 3 -70 -3 -84 -17 -8 -8 -26 -15 -41
-15 -14 0 -24 -4 -21 -9 3 -5 0 -9 -7 -8 -37 1 -57 -5 -79 -25 -13 -13 -40
-25 -59 -26 -19 -2 -41 -10 -49 -17 -8 -7 -25 -16 -38 -20 -12 -3 -20 -11 -17
-16 3 -5 -1 -6 -9 -3 -8 3 -23 -4 -33 -15 -9 -12 -25 -21 -34 -21 -20 0 -76
-28 -85 -41 -6 -11 -52 -32 -69 -33 -5 -1 -32 -13 -58 -28 -26 -16 -52 -28
-58 -28 -6 0 -8 -4 -5 -9 3 -5 -7 -11 -22 -14 -15 -3 -39 -17 -54 -31 -15 -15
-30 -26 -34 -26 -4 0 -15 -9 -25 -21 -10 -11 -23 -18 -28 -14 -6 3 -11 3 -11
-2 0 -4 -15 -15 -32 -22 -18 -8 -40 -22 -48 -30 -8 -9 -32 -24 -52 -33 -26
-12 -36 -22 -32 -33 4 -9 0 -15 -10 -15 -29 0 -136 -76 -136 -97 0 -7 -6 -13
-13 -13 -16 0 -130 -114 -122 -122 4 -3 -4 -9 -17 -13 -28 -9 -132 -115 -129
-132 1 -7 -7 -13 -17 -13 -11 0 -22 -7 -26 -15 -3 -8 -2 -15 3 -15 4 0 8 -7 8
-15 0 -18 -14 -20 -20 -2 -2 6 -11 -4 -21 -24 -9 -20 -28 -42 -41 -49 -13 -7
-21 -18 -19 -24 3 -7 -7 -18 -21 -26 -17 -9 -23 -19 -20 -31 3 -10 -1 -19 -10
-23 -8 -3 -15 -12 -15 -21 0 -8 -5 -15 -10 -15 -14 0 -56 -43 -52 -54 1 -4 -9
-18 -24 -31 -15 -13 -23 -28 -20 -34 4 -6 2 -11 -4 -11 -6 0 -8 -5 -5 -10 3
-6 -2 -22 -13 -38 -11 -15 -17 -32 -15 -38 2 -7 -8 -15 -22 -18 -14 -4 -23
-11 -19 -17 3 -6 -1 -18 -10 -28 -21 -23 -56 -91 -56 -108 0 -7 -4 -13 -10
-13 -5 0 -6 -7 -3 -17 4 -10 2 -14 -4 -10 -6 4 -9 -3 -7 -18 1 -14 -2 -25 -7
-25 -13 0 -56 -98 -69 -156 -6 -26 -18 -60 -27 -78 -9 -17 -20 -48 -23 -68 -6
-31 -4 -38 9 -38 14 -1 14 -2 1 -13 -22 -18 -40 -54 -40 -80 0 -12 -6 -31 -14
-42 -7 -11 -12 -35 -11 -53 1 -18 -2 -35 -7 -38 -4 -3 -8 -23 -8 -45 0 -22 -4
-48 -9 -58 -5 -9 -11 -36 -13 -58 -3 -23 -10 -48 -16 -56 -9 -11 -10 -22 -2
-42 6 -15 8 -37 4 -48 -4 -14 -3 -18 7 -13 8 4 5 1 -5 -8 -16 -13 -17 -18 -6
-31 11 -13 10 -14 -4 -9 -12 5 -15 2 -10 -10 3 -9 10 -16 14 -16 5 0 7 -8 5
-17 -1 -10 -8 -17 -14 -16 -14 4 -15 -24 -1 -32 6 -4 7 -12 1 -22 -10 -19 -3
-55 10 -47 5 3 6 -2 3 -10 -3 -9 -9 -14 -13 -12 -4 3 -7 -24 -7 -60 1 -35 3
-64 6 -64 3 0 6 -52 7 -116 1 -85 5 -119 15 -125 10 -7 10 -9 -2 -9 -11 0 -11
-3 -2 -12 7 -7 12 -28 12 -47 0 -36 24 -116 40 -136 4 -5 13 -36 20 -67 6 -32
15 -60 20 -63 5 -3 7 -12 3 -20 -3 -8 0 -15 7 -15 6 0 8 -5 5 -11 -4 -6 3 -13
14 -16 20 -5 20 -6 4 -19 -11 -9 -14 -17 -8 -21 18 -14 65 -124 65 -154 0 -9
7 -24 15 -32 8 -8 12 -17 9 -20 -8 -8 17 -47 51 -78 17 -16 24 -29 17 -29 -7
0 -15 7 -18 15 -4 8 -11 15 -17 15 -5 0 -2 -9 8 -20 10 -11 25 -20 33 -20 12
0 12 -3 1 -16 -11 -14 -10 -19 10 -35 18 -15 20 -19 7 -19 -10 0 -14 -5 -11
-11 4 -6 13 -8 21 -5 8 3 14 1 14 -3 0 -5 -6 -12 -12 -14 -7 -3 -3 -6 8 -6 25
-1 39 -38 22 -58 -7 -9 -7 -13 1 -13 6 0 11 -4 11 -10 0 -16 64 -99 78 -99 6
-1 12 -12 12 -26 0 -14 5 -25 10 -25 6 0 14 -8 17 -18 11 -29 46 -73 106 -134
31 -32 55 -58 53 -58 -2 0 24 -29 58 -64 33 -36 63 -61 64 -55 2 5 8 9 14 9 6
0 7 -7 4 -16 -3 -8 -2 -12 4 -9 9 6 36 -34 32 -48 -1 -4 11 -10 27 -13 16 -4
28 -11 25 -18 -2 -6 10 -17 26 -25 17 -7 29 -15 27 -17 -10 -10 49 -64 70 -64
13 0 23 -4 23 -10 0 -5 7 -10 16 -10 10 0 14 -6 10 -15 -3 -8 -1 -15 5 -15 6
0 24 -9 40 -21 17 -12 39 -19 49 -16 11 3 18 0 17 -6 -1 -6 9 -16 22 -23 13
-7 28 -18 32 -26 7 -10 9 -10 9 0 0 6 4 12 10 12 5 0 7 -6 4 -14 -5 -13 11
-25 30 -22 5 0 13 -10 18 -24 7 -18 11 -21 17 -11 6 9 10 7 14 -8 3 -12 13
-21 22 -21 9 0 46 -18 82 -40 37 -22 75 -40 84 -40 10 0 19 -5 21 -12 3 -7 16
-13 31 -13 15 -1 40 -12 55 -26 15 -13 32 -24 37 -25 20 -1 60 -17 66 -27 4
-5 20 -10 37 -11 17 0 28 -4 26 -8 -3 -4 15 -13 38 -19 24 -7 55 -21 69 -31
26 -17 26 -17 38 5 l11 22 -6 -22 c-4 -18 -1 -23 15 -24 12 -1 24 -2 29 -4 50
-14 62 -18 62 -25 0 -13 43 -20 57 -8 11 8 12 7 7 -7 -6 -15 -3 -17 14 -13 12
4 22 2 22 -3 0 -5 5 -9 10 -9 6 0 10 6 10 14 0 8 5 18 12 22 7 4 8 3 4 -5 -9
-14 33 -51 50 -44 6 2 27 -2 45 -9 19 -8 51 -15 71 -16 20 -2 49 -9 65 -17 25
-13 28 -13 33 1 5 14 7 14 18 1 12 -14 107 -44 124 -39 4 1 23 -5 43 -14 20
-8 40 -12 45 -9 6 4 10 1 10 -4 0 -6 7 -11 15 -11 8 0 15 5 15 10 0 6 4 10 10
10 5 0 9 -6 7 -13 -1 -8 13 -12 48 -10 28 0 53 -4 57 -10 4 -6 27 -10 53 -8
26 1 45 -1 42 -6 -3 -4 25 -9 61 -10 37 -1 85 -4 107 -7 49 -7 157 -17 245
-22 36 -2 86 -6 113 -8 31 -2 47 0 47 8 0 6 4 5 9 -3 10 -15 121 -24 121 -9 0
5 9 4 20 -2 14 -8 20 -8 20 0 0 6 5 8 12 4 14 -9 58 -12 58 -4 0 3 27 5 60 5
33 0 60 -2 60 -5 0 -3 43 -6 96 -7 52 -2 93 0 91 5 -3 4 54 7 126 8 73 0 143
4 157 8 19 6 22 5 10 -4 -11 -8 -5 -9 25 -6 22 3 43 5 48 5 4 1 7 8 7 16 0 8
8 15 18 15 15 0 15 -2 2 -10 -11 -8 -2 -9 30 -6 25 3 51 5 58 5 8 1 10 6 6 14
-4 6 2 3 14 -7 14 -12 22 -14 22 -7 0 8 11 11 29 9 16 -1 36 4 45 11 10 9 16
10 16 2 0 -6 16 -11 35 -11 24 0 35 5 35 15 0 8 5 15 10 15 6 0 10 -5 10 -11
0 -8 11 -9 33 -4 17 4 41 8 53 9 11 2 25 5 31 9 6 4 19 4 29 0 12 -5 15 -3 9
6 -5 10 -2 11 11 7 11 -3 36 3 57 14 20 11 46 20 56 20 11 0 23 5 26 10 4 6
11 8 16 4 6 -3 29 1 52 9 23 8 49 15 57 15 50 1 103 11 110 22 5 9 9 9 14 1
10 -16 26 -14 26 4 0 11 9 14 40 10 22 -3 40 -1 40 4 0 5 16 12 35 15 20 4 33
11 30 15 -2 5 5 11 18 15 12 3 23 2 25 -3 3 -9 33 -5 67 9 39 16 60 24 70 26
31 6 55 18 55 26 0 6 7 7 16 4 9 -3 21 -3 27 1 7 4 17 8 23 9 6 1 29 9 50 19
22 9 54 23 72 31 18 8 31 18 28 22 -2 4 3 18 13 30 18 24 51 22 51 -3 0 -11 5
-11 28 1 15 7 32 14 38 14 7 0 14 7 18 15 3 8 12 15 20 15 28 0 85 44 80 61
-5 20 14 29 40 20 22 -8 85 19 86 36 0 7 7 10 15 7 8 -4 15 -1 15 5 0 6 3 10
8 9 12 -3 93 42 121 68 14 13 38 24 53 24 21 0 26 4 21 17 -4 10 -2 14 4 10 6
-4 18 -1 26 7 8 8 16 13 18 11 9 -9 195 133 207 158 7 15 25 30 40 33 15 4 38
16 52 27 20 16 21 19 5 14 -20 -7 -20 -7 -1 8 11 8 28 15 38 15 20 0 23 10 8
28 -7 9 -7 9 2 2 17 -14 28 -12 28 6 0 9 5 12 11 8 8 -5 10 0 6 17 -5 20 2 33
39 68 24 24 42 37 39 29 -4 -9 -2 -19 4 -23 6 -3 11 1 11 11 0 19 36 54 56 54
6 0 21 16 33 35 11 20 27 38 35 41 8 3 12 12 9 20 -3 8 -1 14 4 14 8 0 35 48
47 84 4 10 9 16 13 13 9 -9 35 44 29 59 -3 7 4 14 15 17 10 3 21 11 23 19 2 7
7 22 12 33 4 11 7 23 6 27 -1 3 5 12 13 18 8 7 15 17 15 22 0 15 39 96 50 103
15 9 12 27 -2 19 -7 -4 -4 2 6 14 20 23 74 149 82 189 2 12 9 35 16 50 13 32
17 47 22 83 3 14 14 51 26 83 12 32 19 61 16 64 -3 3 -1 14 4 24 7 12 7 20 0
24 -17 10 -11 25 7 18 11 -4 14 -3 9 6 -4 6 -2 19 6 28 11 14 11 16 0 9 -11
-6 -13 -1 -11 20 2 16 -1 35 -5 43 -6 9 -5 12 5 9 8 -3 13 -17 12 -32 -1 -14
2 -26 6 -26 12 0 32 66 25 84 -3 9 -1 16 4 16 18 0 36 103 23 128 -7 13 -7 23
-1 27 5 3 6 13 3 22 -4 11 -3 14 5 9 13 -8 13 -10 17 92 2 44 -1 72 -7 72 -6
0 -7 8 -3 18 11 28 13 92 3 86 -6 -4 -5 3 1 15 8 15 9 27 1 40 -5 11 -7 26 -4
35 3 8 2 21 -2 28 -5 7 -10 27 -11 43 -1 17 -4 53 -7 80 -4 54 -21 106 -38
116 -6 4 -7 12 -4 18 4 6 11 9 15 6 14 -8 -1 49 -20 76 -10 14 -16 29 -13 32
5 5 -20 119 -49 225 -6 23 -17 42 -24 42 -8 0 -10 11 -6 35 4 26 2 36 -11 41
-10 4 -16 18 -16 36 0 16 -4 27 -9 24 -9 -6 -14 9 -26 71 -2 12 -13 32 -24 44
-11 12 -18 26 -15 30 2 4 -4 12 -13 18 -10 6 -13 11 -6 11 8 0 5 12 -8 35 -12
20 -26 32 -32 29 -9 -5 -9 -4 -1 6 16 16 -15 72 -35 65 -12 -5 -12 -3 0 11 11
14 11 18 -2 28 -9 6 -14 17 -12 23 3 7 -2 16 -11 19 -9 3 -16 12 -16 19 0 7
-7 18 -15 25 -8 7 -13 16 -10 20 2 4 -5 17 -17 30 -17 18 -18 24 -7 31 8 5 9
9 4 9 -6 0 -19 16 -29 35 -11 19 -22 35 -26 35 -4 0 -31 34 -60 75 -29 41 -57
72 -62 69 -5 -3 -7 -1 -6 4 3 12 -90 112 -103 112 -6 0 -15 14 -20 30 -6 16
-15 30 -21 30 -10 0 -43 30 -43 40 0 9 -67 73 -105 100 -19 13 -46 34 -60 47
-55 50 -74 63 -87 63 -8 0 -11 5 -7 12 4 7 3 8 -5 4 -7 -5 -20 1 -30 13 -10
12 -24 21 -30 21 -6 0 -33 15 -60 33 -27 17 -63 41 -82 52 -18 11 -41 25 -51
31 -10 6 -30 22 -43 34 -14 13 -25 18 -25 12 0 -7 -5 -12 -11 -12 -6 0 -9 6
-6 14 7 19 -37 48 -59 39 -11 -4 -15 -2 -11 4 4 6 0 13 -8 17 -8 3 -15 1 -15
-4 0 -6 -5 -10 -11 -10 -6 0 -9 7 -5 15 4 12 0 14 -21 9 -22 -6 -25 -4 -20 10
5 13 0 16 -23 16 -17 0 -30 5 -30 11 0 6 -7 9 -15 5 -8 -3 -15 -1 -15 5 0 6
-7 8 -16 5 -8 -3 -13 -2 -9 3 3 5 -9 13 -27 16 -18 4 -36 13 -40 19 -6 8 -8 7
-8 -1 0 -7 -5 -13 -11 -13 -6 0 -9 7 -5 15 3 10 -1 15 -13 15 -11 0 -22 6 -25
13 -5 10 -7 10 -12 0 -8 -18 -27 -16 -20 2 5 13 -10 20 -36 16 -5 0 -8 3 -8 9
0 5 -16 12 -35 16 -19 3 -38 10 -41 15 -3 5 -14 9 -25 9 -10 0 -36 9 -56 20
-21 11 -50 20 -65 20 -16 0 -28 5 -28 11 0 6 -7 8 -17 5 -9 -4 -20 -1 -25 6
-7 10 -11 10 -14 1 -4 -8 -17 -1 -37 18 -20 20 -38 28 -50 25 -11 -3 -26 2
-34 10 -8 7 -26 17 -41 20 -15 3 -34 8 -42 10 -8 3 -15 4 -16 2 0 -2 -8 3 -17
11 -14 11 -17 11 -17 0 0 -9 -3 -10 -8 -4 -12 17 -62 36 -62 24 0 -5 -10 -3
-22 5 -12 9 -32 16 -44 16 -11 0 -24 3 -28 8 -4 4 -17 7 -29 8 -12 1 -29 4
-37 7 -8 4 -84 20 -169 37 -84 17 -161 35 -171 40 -10 5 -32 7 -51 5 -18 -2
-39 1 -46 7 -8 6 -16 8 -20 4 -3 -3 -17 1 -29 9 -17 11 -24 11 -27 2 -3 -9 -7
-9 -18 0 -8 6 -37 15 -64 18 -28 4 -58 9 -69 12 -14 4 -16 2 -10 -8 6 -11 5
-12 -7 -3 -14 12 -75 25 -119 25 -14 0 -47 7 -75 14 -27 8 -61 14 -75 14 -40
0 -111 8 -115 13 -3 2 -28 2 -55 -2 -28 -4 -53 -3 -56 2 -4 5 -25 8 -48 7 -23
-2 -47 1 -54 5 -7 4 -45 4 -85 1 -39 -4 -76 -6 -82 -6 -54 7 -156 6 -164 -2z
m839 -67 c0 -5 -4 -10 -10 -10 -5 0 -10 5 -10 10 0 6 5 10 10 10 6 0 10 -4 10
-10z m-360 -54 c0 -3 -4 -8 -10 -11 -5 -3 -10 -1 -10 4 0 6 5 11 10 11 6 0 10
-2 10 -4z m-1001 -47 c-16 -10 -23 -4 -14 10 3 6 11 8 17 5 6 -4 5 -9 -3 -15z
m1561 2 c0 -5 -7 -12 -16 -15 -21 -8 -24 -8 -24 5 0 5 5 7 10 4 6 -3 10 -1 10
4 0 6 5 11 10 11 6 0 10 -4 10 -9z m-630 -22 c0 -8 4 -8 14 0 9 7 17 8 20 3 8
-13 146 -13 146 0 0 6 6 6 15 -2 8 -6 18 -9 22 -7 5 3 31 1 58 -4 28 -5 79
-12 115 -14 36 -3 75 -8 88 -10 13 -3 22 -1 22 6 0 8 4 8 13 2 6 -6 19 -10 27
-11 52 0 285 -44 292 -55 5 -8 8 -9 8 0 0 16 25 10 51 -13 16 -13 23 -15 26
-6 3 6 9 12 15 12 6 0 7 -7 4 -15 -3 -9 1 -18 9 -20 8 -3 23 -8 33 -12 9 -3
21 -5 25 -4 4 0 16 -3 27 -9 12 -7 21 -7 25 0 8 13 45 13 45 -1 0 -6 14 -9 35
-6 19 3 38 1 40 -4 7 -10 65 -7 65 4 0 4 4 7 10 7 5 0 9 -6 7 -12 -1 -7 6 -13
16 -13 10 0 25 -8 32 -18 9 -13 27 -18 57 -19 23 0 61 -9 82 -19 47 -22 49
-23 40 -6 -4 6 2 4 13 -6 11 -9 23 -14 26 -10 4 3 7 -1 7 -10 0 -20 16 -23 23
-4 4 8 6 7 6 -3 1 -16 52 -40 82 -40 15 0 129 -42 159 -59 8 -4 23 -7 33 -5 9
1 15 -1 12 -6 -3 -4 5 -10 16 -13 15 -4 19 -2 15 9 -8 22 12 16 24 -7 7 -11
14 -18 17 -15 4 3 12 1 19 -5 8 -6 21 -8 30 -5 12 5 15 2 10 -10 -4 -11 -2
-15 7 -11 7 3 24 -4 38 -14 13 -10 29 -19 36 -19 6 0 13 -3 15 -7 3 -8 91 -45
134 -57 12 -4 32 -20 44 -36 13 -17 29 -30 36 -30 19 0 100 -46 159 -90 28
-20 66 -46 85 -56 19 -10 37 -22 40 -25 3 -3 20 -14 39 -25 36 -20 111 -92
111 -106 0 -4 9 -8 20 -8 11 0 20 -7 20 -16 0 -8 5 -12 10 -9 6 3 10 -1 10 -9
0 -10 9 -16 25 -16 15 0 25 -6 25 -15 0 -9 -6 -12 -17 -9 -15 5 -15 3 1 -10
11 -9 24 -16 29 -16 4 0 5 -4 2 -10 -3 -5 -2 -10 3 -10 14 0 58 -42 71 -68 7
-12 16 -20 22 -17 5 4 9 -1 9 -9 0 -9 6 -16 13 -16 7 0 18 -9 25 -20 7 -11 19
-20 28 -20 9 0 14 -5 12 -12 -5 -13 34 -58 51 -58 6 0 11 -5 11 -11 0 -16 70
-109 82 -109 16 0 40 -29 33 -40 -3 -6 1 -13 9 -16 9 -3 14 -10 11 -14 -3 -4
2 -13 11 -21 8 -7 24 -32 35 -56 11 -24 26 -46 34 -49 7 -3 11 -12 8 -19 -2
-8 7 -26 21 -40 14 -14 26 -33 26 -42 0 -9 7 -25 16 -34 9 -10 17 -34 18 -54
0 -19 7 -37 14 -40 6 -2 12 -13 12 -23 0 -10 9 -35 20 -57 11 -22 20 -50 20
-62 0 -13 4 -23 9 -23 5 0 12 -7 15 -16 3 -8 2 -12 -4 -9 -17 10 -11 -17 15
-70 14 -27 25 -56 25 -64 0 -8 6 -11 16 -7 14 6 15 4 4 -10 -8 -9 -10 -18 -4
-22 15 -11 33 -70 27 -92 -3 -12 2 -29 13 -41 12 -13 15 -23 7 -27 -12 -8 -5
-72 7 -72 5 0 6 -9 3 -20 -3 -11 -2 -28 2 -37 4 -10 8 -31 10 -48 5 -51 16
-137 26 -194 5 -29 6 -57 3 -62 -3 -5 -7 -65 -10 -132 -2 -67 -6 -147 -9 -177
-3 -30 -8 -75 -10 -99 -3 -24 -10 -50 -15 -57 -8 -8 -8 -14 0 -19 8 -5 6 -11
-4 -18 -11 -8 -16 -33 -18 -79 -2 -38 -7 -68 -12 -68 -4 0 -6 -16 -4 -35 2
-19 0 -35 -5 -35 -5 0 -4 -7 3 -15 10 -12 10 -15 0 -15 -8 0 -11 -3 -8 -6 4
-3 -2 -24 -12 -46 -10 -23 -16 -47 -13 -55 4 -9 0 -11 -13 -6 -14 5 -16 3 -11
-11 4 -9 3 -15 -2 -12 -5 3 -11 -3 -14 -14 -3 -11 -1 -20 4 -20 5 0 9 -4 9
-10 0 -5 -6 -7 -13 -4 -8 3 -14 -1 -14 -8 0 -7 -3 -23 -7 -35 -5 -16 -3 -23 5
-23 7 0 -3 -13 -21 -30 -20 -17 -28 -30 -19 -30 10 -1 8 -5 -6 -16 -11 -8 -19
-20 -17 -26 1 -5 -2 -16 -8 -23 -8 -10 -8 -19 0 -35 10 -18 9 -21 -6 -18 -18
3 -36 -26 -84 -132 -13 -30 -51 -85 -83 -122 -33 -38 -55 -68 -51 -68 5 -1 -3
-8 -18 -16 -16 -8 -28 -18 -28 -23 0 -5 -12 -20 -26 -34 -14 -14 -23 -31 -19
-37 4 -6 3 -10 -2 -9 -22 4 -32 -4 -42 -32 -6 -17 -15 -28 -20 -25 -5 3 -17 3
-26 0 -13 -5 -14 -9 -4 -15 10 -6 9 -10 -6 -15 -31 -11 -55 -35 -55 -54 0 -10
-7 -20 -15 -24 -8 -3 -15 -12 -15 -20 0 -10 -6 -13 -15 -10 -10 4 -13 2 -10
-8 7 -18 -28 -51 -58 -53 -12 -2 -21 -8 -19 -14 1 -7 -2 -10 -8 -6 -6 4 -18 1
-26 -6 -14 -12 -14 -14 3 -21 11 -5 7 -6 -13 -3 -21 4 -35 1 -44 -10 -8 -10
-9 -15 -1 -15 6 0 11 5 11 10 0 6 5 10 11 10 8 0 8 -5 -1 -15 -7 -8 -21 -15
-31 -15 -20 0 -60 -19 -70 -33 -3 -5 -8 -8 -10 -6 -2 1 -15 -1 -28 -6 -19 -6
-21 -9 -10 -17 10 -7 8 -8 -7 -3 -22 6 -54 -16 -54 -37 0 -5 -7 -8 -15 -4 -9
3 -15 0 -15 -10 0 -8 -4 -13 -9 -9 -5 3 -12 1 -16 -5 -3 -5 -17 -10 -31 -10
-13 0 -24 -4 -24 -10 0 -5 -8 -10 -18 -10 -11 0 -27 -8 -36 -19 -9 -10 -35
-21 -57 -25 -22 -3 -48 -10 -57 -15 -9 -5 -33 -17 -54 -27 -24 -12 -34 -23
-31 -33 4 -14 3 -14 -6 -1 -9 13 -16 11 -56 -8 -25 -12 -52 -22 -60 -22 -7 0
-21 -7 -29 -16 -10 -10 -16 -11 -16 -3 0 9 -4 8 -15 -1 -8 -7 -15 -9 -15 -6 0
4 -12 0 -27 -8 -16 -9 -67 -29 -115 -45 -48 -16 -100 -39 -114 -50 -17 -14
-31 -18 -37 -12 -6 6 -24 4 -49 -5 -22 -8 -47 -14 -55 -14 -8 0 -29 -6 -46
-14 -50 -22 -120 -48 -141 -52 -11 -2 -40 -10 -65 -18 -63 -21 -214 -56 -238
-56 -11 0 -23 -3 -26 -7 -7 -7 -27 -9 -117 -16 -30 -3 -56 -9 -57 -14 -2 -5
-17 -7 -33 -5 -17 2 -30 0 -30 -4 0 -5 -44 -9 -98 -10 -331 -3 -461 -7 -456
-15 3 -5 1 -9 -5 -9 -5 0 -12 6 -14 13 -4 9 -8 9 -15 -2 -5 -7 -15 -10 -21 -6
-7 4 -18 2 -25 -4 -10 -8 -17 -7 -26 4 -11 13 -15 13 -22 3 -8 -10 -11 -10
-15 0 -8 19 -23 14 -16 -5 6 -16 5 -16 -11 -3 -19 15 -60 25 -53 13 6 -10
-118 -9 -197 1 -41 5 -56 5 -52 -3 5 -8 -1 -8 -19 -1 -15 6 -65 10 -113 11
-118 0 -142 2 -142 9 0 10 -93 6 -109 -4 -11 -7 -13 -5 -8 6 8 23 -4 31 -18
11 -10 -13 -15 -14 -31 -4 -17 11 -17 11 5 5 14 -4 21 -2 17 4 -7 11 -165 36
-174 27 -4 -3 0 -10 8 -15 13 -8 12 -10 -2 -10 -10 0 -18 6 -18 14 0 19 -18
24 -69 20 -25 -2 -50 1 -57 7 -7 6 -22 8 -33 4 -10 -3 -22 -1 -26 5 -4 6 -13
9 -21 6 -7 -3 -34 1 -59 8 -39 12 -47 12 -59 0 -18 -18 -27 -18 -20 0 8 21 -7
27 -106 42 -19 2 -46 7 -60 10 -14 2 -43 7 -65 9 -22 3 -43 9 -48 14 -5 5 -15
7 -22 4 -8 -2 -24 1 -37 8 -13 7 -29 12 -35 11 -7 -2 -13 1 -13 6 0 8 -22 16
-75 28 -5 1 -22 2 -37 3 -17 1 -28 7 -28 15 0 8 -11 13 -25 13 -14 0 -35 9
-47 19 -19 17 -21 17 -15 2 4 -10 2 -18 -4 -18 -5 0 -12 6 -15 14 -3 8 -23 17
-45 21 -24 4 -39 12 -39 21 0 18 4 18 40 -1 17 -9 30 -12 30 -8 0 15 -59 34
-108 35 -36 1 -49 5 -45 14 2 7 -6 15 -19 19 -13 3 -33 11 -46 17 -17 9 -25 9
-34 0 -18 -18 -31 -14 -25 8 4 14 0 20 -12 20 -9 0 -26 7 -37 15 -10 8 -35 15
-54 15 -19 0 -49 9 -67 19 -23 14 -33 16 -37 8 -2 -7 -5 -6 -5 4 -1 16 -39 42
-57 38 -24 -4 -43 2 -38 14 2 7 -7 19 -21 27 -14 7 -25 17 -25 22 0 4 -5 8
-11 8 -6 0 -16 6 -23 12 -7 7 -25 22 -41 33 -15 11 -42 32 -60 47 -18 15 -35
25 -39 21 -3 -3 -6 0 -7 8 0 17 -106 104 -142 118 -14 6 -31 19 -36 30 -6 11
-20 23 -31 26 -12 4 -34 19 -49 33 -15 15 -58 55 -94 90 -37 35 -67 68 -67 73
0 5 -11 14 -25 19 -14 5 -29 18 -32 27 -8 22 -28 43 -41 43 -5 0 -12 14 -16
31 -4 20 -10 28 -17 23 -8 -4 -9 -3 -5 5 4 6 -2 24 -13 40 -12 16 -21 34 -21
40 0 6 -7 7 -17 4 -10 -4 -14 -2 -10 4 5 9 -28 90 -42 103 -13 12 -31 51 -31
69 0 10 -7 24 -15 31 -17 14 -21 35 -4 25 6 -4 5 3 -3 14 -10 17 -14 18 -16 6
-2 -8 -8 -15 -13 -15 -5 0 -7 11 -3 25 4 17 -2 39 -22 72 -16 27 -29 53 -29
58 -1 23 -17 55 -27 55 -6 0 -9 3 -6 6 3 3 -5 33 -18 66 -13 33 -21 64 -19 68
3 4 -5 20 -17 36 -18 23 -19 27 -5 21 9 -3 17 -2 17 3 0 6 -8 10 -17 10 -9 0
-13 3 -10 7 4 3 1 13 -6 21 -10 13 -9 15 5 9 16 -5 16 -4 5 16 -6 12 -16 25
-21 28 -5 4 -6 12 -2 18 4 6 2 19 -4 30 -7 14 -7 22 0 26 8 5 7 11 0 20 -7 8
-9 23 -5 34 3 11 1 29 -4 40 -10 18 -13 39 -27 189 -4 39 -11 72 -15 72 -5 0
-9 7 -9 15 0 8 4 15 8 15 12 0 13 53 1 61 -8 5 -7 13 2 30 7 13 14 35 15 49 1
14 5 34 10 44 5 14 4 17 -4 12 -7 -4 -12 -1 -12 9 0 9 5 13 10 10 6 -3 10 4
11 17 1 43 9 89 18 106 5 9 9 52 9 96 -1 63 2 80 15 88 21 11 22 28 2 28 -13
0 -14 4 -5 20 6 11 7 20 3 20 -17 0 -6 55 11 58 9 2 15 9 14 15 -1 7 8 43 20
80 12 37 24 81 26 97 2 16 17 57 34 92 26 54 59 150 63 183 1 6 10 21 20 34
11 13 19 29 19 35 0 7 11 34 24 62 13 27 33 70 45 97 12 26 26 47 31 47 5 0 7
7 4 15 -4 8 -2 15 4 15 5 0 13 11 16 25 4 14 11 25 16 25 6 0 10 7 10 16 0 9
11 25 24 35 14 11 27 33 31 50 4 17 14 33 23 36 28 11 52 42 46 60 -4 11 -3
14 3 6 11 -15 48 11 38 26 -3 6 -2 11 4 11 6 0 20 11 33 24 60 62 79 86 69 86
-6 0 -11 5 -11 11 0 6 7 9 15 6 8 -4 17 -2 20 3 4 6 1 10 -4 10 -6 0 -11 5
-11 10 0 6 6 10 14 8 8 -2 60 43 115 99 55 56 148 138 208 184 59 45 116 92
125 105 10 12 42 34 72 48 29 14 59 32 66 41 7 8 18 15 24 15 7 0 74 32 150
70 75 39 143 70 150 70 7 0 21 9 30 19 10 11 23 17 30 15 7 -3 18 2 25 10 7 9
28 18 47 22 19 3 34 10 34 15 0 5 7 6 15 3 21 -8 87 15 78 29 -4 6 0 8 10 4
12 -4 17 -1 18 11 0 9 3 12 5 5 6 -14 73 -6 94 13 8 7 44 16 80 19 36 4 83 12
105 17 35 10 55 13 87 17 4 1 5 9 2 19 -5 13 -4 14 4 3 8 -11 16 -12 39 -4 71
27 149 46 194 47 38 1 48 4 44 15 -4 11 -2 11 9 2 9 -8 16 -8 20 -2 4 6 13 8
21 5 8 -3 28 1 46 10 23 11 36 13 50 5 13 -7 26 -6 40 2 27 14 64 18 278 34
41 3 77 9 80 13 4 5 40 8 82 8 57 -1 75 2 72 12 -6 15 13 16 23 1 8 -13 267 0
281 15 10 10 23 7 23 -5z m-1365 -49 c3 -5 1 -10 -4 -10 -6 0 -11 5 -11 10 0
6 2 10 4 10 3 0 8 -4 11 -10z m-60 -18 c-3 -3 -11 0 -18 7 -9 10 -8 11 6 5 10
-3 15 -9 12 -12z m2875 -32 c0 -5 -5 -10 -11 -10 -5 0 -7 5 -4 10 3 6 8 10 11
10 2 0 4 -4 4 -10z m-460 -11 c0 -6 6 -9 14 -6 17 7 54 -18 43 -29 -4 -4 -13
-2 -19 4 -7 7 -20 12 -29 12 -9 0 -19 7 -23 15 -3 8 -1 15 4 15 6 0 10 -5 10
-11z m-2780 -9 c0 -5 -5 -10 -11 -10 -5 0 -7 5 -4 10 3 6 8 10 11 10 2 0 4 -4
4 -10z m3290 0 c0 -5 -7 -10 -16 -10 -8 0 -12 5 -9 10 3 6 10 10 16 10 5 0 9
-4 9 -10z m-275 -30 c3 -5 1 -10 -4 -10 -6 0 -11 5 -11 10 0 6 2 10 4 10 3 0
8 -4 11 -10z m392 4 c-3 -3 -12 -4 -19 -1 -8 3 -5 6 6 6 11 1 17 -2 13 -5z
m-187 -38 c0 -3 -4 -8 -10 -11 -5 -3 -10 -1 -10 4 0 6 5 11 10 11 6 0 10 -2
10 -4z m-3050 -10 c0 -3 -4 -8 -10 -11 -5 -3 -10 -1 -10 4 0 6 5 11 10 11 6 0
10 -2 10 -4z m3088 -14 c2 -7 -2 -10 -12 -6 -9 3 -16 11 -16 16 0 13 23 5 28
-10z m-3177 -25 c-10 -9 -11 -8 -5 6 3 10 9 15 12 12 3 -3 0 -11 -7 -18z
m3259 3 c0 -5 -4 -10 -10 -10 -5 0 -10 5 -10 10 0 6 5 10 10 10 6 0 10 -4 10
-10z m48 -21 c18 -6 30 -15 27 -19 -5 -8 -65 16 -65 26 0 6 3 5 38 -7z m-3483
-18 c3 -5 1 -12 -5 -16 -5 -3 -10 1 -10 9 0 18 6 21 15 7z m3485 -11 c0 -5 -5
-10 -11 -10 -5 0 -7 5 -4 10 3 6 8 10 11 10 2 0 4 -4 4 -10z m828 -190 c7 -11
8 -20 2 -20 -5 0 -14 9 -20 20 -6 11 -7 20 -3 20 5 0 14 -9 21 -20z m-188 -56
c0 -2 -7 -4 -15 -4 -8 0 -15 4 -15 10 0 5 7 7 15 4 8 -4 15 -8 15 -10z m441
-134 c5 0 9 -8 9 -17 -1 -16 -2 -16 -15 1 -8 11 -14 27 -14 35 1 13 2 12 6 -1
2 -10 9 -18 14 -18z m-5341 16 c0 -3 -4 -8 -10 -11 -5 -3 -10 -1 -10 4 0 6 5
11 10 11 6 0 10 -2 10 -4z m-86 -25 c3 -5 -1 -11 -9 -14 -9 -4 -12 -1 -8 9 6
16 10 17 17 5z m5466 -1 c0 -5 -2 -10 -4 -10 -3 0 -8 5 -11 10 -3 6 -1 10 4
10 6 0 11 -4 11 -10z m-5438 -42 c-8 -8 -9 -4 -5 13 4 13 8 18 11 10 2 -7 -1
-18 -6 -23z m5508 -18 c0 -5 -2 -10 -4 -10 -3 0 -8 5 -11 10 -3 6 -1 10 4 10
6 0 11 -4 11 -10z m140 -190 c0 -5 -2 -10 -4 -10 -3 0 -8 5 -11 10 -3 6 -1 10
4 10 6 0 11 -4 11 -10z m30 -23 c0 -5 -4 -5 -10 -2 -5 3 -10 14 -10 23 0 15 2
15 10 2 5 -8 10 -19 10 -23z m-5844 -3 c-9 -9 -20 -14 -23 -10 -4 3 2 13 13
20 25 18 31 12 10 -10z m5704 16 c0 -5 -4 -10 -10 -10 -5 0 -10 5 -10 10 0 6
5 10 10 10 6 0 10 -4 10 -10z m-5835 -10 c3 -5 1 -10 -4 -10 -6 0 -11 5 -11
10 0 6 2 10 4 10 3 0 8 -4 11 -10z m-25 -74 c0 -2 -7 -9 -15 -16 -13 -11 -14
-10 -9 4 5 14 24 23 24 12z m6055 -36 c3 -5 1 -10 -4 -10 -6 0 -11 5 -11 10 0
6 2 10 4 10 3 0 8 -4 11 -10z m185 -35 c11 -13 10 -14 -4 -9 -9 3 -16 10 -16
15 0 13 6 11 20 -6z m-26 -71 c3 -8 2 -12 -4 -9 -6 3 -10 10 -10 16 0 14 7 11
14 -7z m-6374 -52 c0 -5 -9 -17 -20 -27 -23 -21 -26 -14 -8 15 13 20 28 27 28
12z m6460 -79 c0 -3 -9 6 -20 20 -11 14 -20 31 -20 39 0 7 9 -2 20 -20 11 -18
20 -35 20 -39z m50 31 c0 -8 -4 -12 -10 -9 -5 3 -10 10 -10 16 0 5 5 9 10 9 6
0 10 -7 10 -16z m-6623 -83 c0 -11 -5 -18 -9 -15 -4 3 -5 11 -1 19 7 21 12 19
10 -4z m-27 -71 c0 -5 -2 -10 -4 -10 -3 0 -8 5 -11 10 -3 6 -1 10 4 10 6 0 11
-4 11 -10z m6648 -48 c2 -7 -2 -10 -12 -6 -9 3 -16 11 -16 16 0 13 23 5 28
-10z m36 -59 c18 -21 18 -22 0 -21 -12 1 -20 10 -20 26 -1 13 -1 22 0 20 0 -2
10 -13 20 -25z m-6764 -37 c0 -3 -4 -8 -10 -11 -5 -3 -10 -1 -10 4 0 6 5 11
10 11 6 0 10 -2 10 -4z m6785 -6 c3 -5 1 -10 -4 -10 -6 0 -11 5 -11 10 0 6 2
10 4 10 3 0 8 -4 11 -10z m175 -40 c0 -5 -2 -10 -4 -10 -3 0 -8 5 -11 10 -3 6
-1 10 4 10 6 0 11 -4 11 -10z m-192 -35 c-3 -3 -9 2 -12 12 -6 14 -5 15 5 6 7
-7 10 -15 7 -18z m-6748 -5 c0 -5 -5 -10 -11 -10 -5 0 -7 5 -4 10 3 6 8 10 11
10 2 0 4 -4 4 -10z m6830 -50 c0 -5 -5 -10 -11 -10 -5 0 -7 5 -4 10 3 6 8 10
11 10 2 0 4 -4 4 -10z m-6920 -25 c-7 -9 -15 -13 -17 -11 -7 7 7 26 19 26 6 0
6 -6 -2 -15z m37 -12 c0 -10 -9 -31 -19 -48 -22 -36 -24 -21 -3 29 17 40 22
44 22 19z m-107 -217 c0 -3 -4 -8 -10 -11 -5 -3 -10 -1 -10 4 0 6 5 11 10 11
6 0 10 -2 10 -4z m7220 -206 c13 -8 13 -10 -2 -10 -9 0 -20 5 -23 10 -8 13 5
13 25 0z m10 -50 c0 -5 -5 -10 -11 -10 -5 0 -7 5 -4 10 3 6 8 10 11 10 2 0 4
-4 4 -10z m140 -153 c0 -5 -4 -5 -10 -2 -5 3 -10 14 -10 23 0 15 2 15 10 2 5
-8 10 -19 10 -23z m-7475 -77 c3 -5 1 -10 -4 -10 -6 0 -11 5 -11 10 0 6 2 10
4 10 3 0 8 -4 11 -10z m7375 -70 c0 -5 -4 -10 -10 -10 -5 0 -10 5 -10 10 0 6
5 10 10 10 6 0 10 -4 10 -10z m-7400 -50 c0 -5 -5 -10 -11 -10 -5 0 -7 5 -4
10 3 6 8 10 11 10 2 0 4 -4 4 -10z m-43 -132 c-3 -8 -6 -5 -6 6 -1 11 2 17 5
13 3 -3 4 -12 1 -19z m7553 -19 c0 -6 -4 -7 -10 -4 -5 3 -10 11 -10 16 0 6 5
7 10 4 6 -3 10 -11 10 -16z m0 -29 c0 -5 -2 -10 -4 -10 -3 0 -8 5 -11 10 -3 6
-1 10 4 10 6 0 11 -4 11 -10z m0 -35 c0 -8 -4 -15 -8 -15 -5 0 -9 7 -9 15 0 8
4 15 9 15 4 0 8 -7 8 -15z m5 -45 c3 -5 1 -10 -4 -10 -6 0 -11 5 -11 10 0 6 2
10 4 10 3 0 8 -4 11 -10z m-7550 -30 c3 -5 1 -10 -4 -10 -6 0 -11 5 -11 10 0
6 2 10 4 10 3 0 8 -4 11 -10z m7537 -42 c-6 -6 -7 0 -4 19 5 21 7 23 10 9 2
-10 0 -22 -6 -28z m-7517 2 c3 -5 2 -10 -4 -10 -5 0 -13 5 -16 10 -3 6 -2 10
4 10 5 0 13 -4 16 -10z m-5 -38 c-7 -3 -19 3 -28 13 -16 15 -15 16 12 4 15 -7
23 -15 16 -17z m7540 -16 c0 -3 -4 -8 -10 -11 -5 -3 -10 -1 -10 4 0 6 5 11 10
11 6 0 10 -2 10 -4z m-7560 -36 c-8 -5 -19 -10 -25 -10 -5 0 -3 5 5 10 8 5 20
10 25 10 6 0 3 -5 -5 -10z m4 -85 c3 -8 1 -15 -4 -15 -6 0 -10 7 -10 15 0 8 2
15 4 15 2 0 6 -7 10 -15z m7446 -15 c0 -5 -4 -10 -9 -10 -6 0 -13 5 -16 10 -3
6 1 10 9 10 9 0 16 -4 16 -10z m-7466 -16 c3 -8 2 -12 -4 -9 -6 3 -10 10 -10
16 0 14 7 11 14 -7z m7556 -114 c0 -5 -2 -10 -4 -10 -3 0 -8 5 -11 10 -3 6 -1
10 4 10 6 0 11 -4 11 -10z m-10 -31 c0 -5 5 -7 10 -4 6 3 10 1 10 -4 0 -13 -3
-13 -24 -5 -18 7 -22 24 -6 24 6 0 10 -5 10 -11z m-7553 -51 c-3 -8 -6 -5 -6
6 -1 11 2 17 5 13 3 -3 4 -12 1 -19z m193 -32 c0 -3 -4 -8 -10 -11 -5 -3 -10
-1 -10 4 0 6 5 11 10 11 6 0 10 -2 10 -4z m-200 -16 c0 -5 -5 -10 -11 -10 -5
0 -7 5 -4 10 3 6 8 10 11 10 2 0 4 -4 4 -10z m100 0 c0 -5 -4 -10 -10 -10 -5
0 -10 5 -10 10 0 6 5 10 10 10 6 0 10 -4 10 -10z m35 -30 c3 -5 2 -10 -4 -10
-5 0 -13 5 -16 10 -3 6 -2 10 4 10 5 0 13 -4 16 -10z m-115 -30 c0 -5 -4 -10
-10 -10 -5 0 -10 5 -10 10 0 6 5 10 10 10 6 0 10 -4 10 -10z m7420 -245 c0 -1
-6 -8 -14 -15 -12 -9 -15 -8 -13 8 0 12 6 18 14 15 7 -3 13 -6 13 -8z m-7050
-465 c0 -5 -4 -10 -10 -10 -5 0 -10 5 -10 10 0 6 5 10 10 10 6 0 10 -4 10 -10z
m6827 4 c-3 -3 -12 -4 -19 -1 -8 3 -5 6 6 6 11 1 17 -2 13 -5z m-6772 -44 c3
-5 1 -10 -4 -10 -6 0 -11 5 -11 10 0 6 2 10 4 10 3 0 8 -4 11 -10z m120 -100
c3 -5 1 -10 -4 -10 -6 0 -11 5 -11 10 0 6 2 10 4 10 3 0 8 -4 11 -10z m6432
-42 c-3 -8 -6 -5 -6 6 -1 11 2 17 5 13 3 -3 4 -12 1 -19z m-6477 -99 c0 -5 -7
-6 -15 -3 -8 4 -15 13 -15 21 0 13 3 13 15 3 8 -7 15 -16 15 -21z m498 -258
c3 -8 -1 -12 -9 -9 -7 2 -15 10 -17 17 -3 8 1 12 9 9 7 -2 15 -10 17 -17z
m5757 -1 c3 -5 1 -10 -4 -10 -6 0 -11 5 -11 10 0 6 2 10 4 10 3 0 8 -4 11 -10z
m-5709 -26 c8 3 14 1 14 -4 0 -6 -9 -10 -20 -10 -14 0 -20 6 -19 23 1 18 2 18
6 4 3 -11 11 -16 19 -13z m-199 -50 c-7 -7 -37 7 -37 17 0 6 9 5 21 -1 11 -7
19 -14 16 -16z m63 -63 c0 -11 -4 -23 -10 -26 -6 -4 -10 5 -10 19 0 14 5 26
10 26 6 0 10 -9 10 -19z m186 -18 c-4 -4 8 -15 25 -24 20 -10 28 -19 20 -23
-6 -4 -11 -2 -11 3 0 6 -7 11 -16 11 -22 0 -48 27 -31 33 18 8 21 8 13 0z
m5422 -28 c-3 -3 -9 2 -12 12 -6 14 -5 15 5 6 7 -7 10 -15 7 -18z m-5324 -41
c5 -14 4 -15 -8 -5 -8 7 -20 10 -26 6 -5 -3 -10 -1 -10 4 0 17 37 13 44 -5z
m30 -10 c3 -8 2 -12 -4 -9 -6 3 -10 10 -10 16 0 14 7 11 14 -7z m5131 -14 c3
-5 1 -10 -4 -10 -6 0 -11 5 -11 10 0 6 2 10 4 10 3 0 8 -4 11 -10z m-5073 -13
c15 -12 15 -14 -3 -25 -16 -10 -19 -9 -19 3 0 8 -5 15 -11 15 -5 0 -7 5 -4 10
8 13 16 12 37 -3z m5017 -18 c-16 -10 -23 -4 -14 10 3 6 11 8 17 5 6 -4 5 -9
-3 -15z m-5189 -29 c0 -5 -2 -10 -4 -10 -3 0 -8 5 -11 10 -3 6 -1 10 4 10 6 0
11 -4 11 -10z m580 -60 c0 -5 -5 -10 -11 -10 -5 0 -7 5 -4 10 3 6 8 10 11 10
2 0 4 -4 4 -10z m46 -37 c-7 -7 -26 7 -26 19 0 6 6 6 15 -2 9 -7 13 -15 11
-17z m4084 -3 c0 -5 -5 -10 -11 -10 -5 0 -7 5 -4 10 3 6 8 10 11 10 2 0 4 -4
4 -10z m-3980 -20 c0 -5 -4 -10 -10 -10 -5 0 -10 5 -10 10 0 6 5 10 10 10 6 0
10 -4 10 -10z m-412 -48 c6 -18 -15 -14 -22 4 -4 10 -1 14 6 12 6 -2 14 -10
16 -16z m4258 -9 c-10 -10 -19 5 -10 18 6 11 8 11 12 0 2 -7 1 -15 -2 -18z
m84 23 c0 -3 -4 -8 -10 -11 -5 -3 -10 -1 -10 4 0 6 5 11 10 11 6 0 10 -2 10
-4z m263 -26 c3 -11 1 -20 -4 -20 -5 0 -9 2 -9 4 0 2 -3 11 -6 20 -3 9 -2 16
4 16 5 0 12 -9 15 -20z m-533 -20 c0 -5 -4 -10 -10 -10 -5 0 -10 5 -10 10 0 6
5 10 10 10 6 0 10 -4 10 -10z m-3360 -70 c0 -5 -5 -10 -11 -10 -5 0 -7 5 -4
10 3 6 8 10 11 10 2 0 4 -4 4 -10z m3130 -4 c0 -3 -4 -8 -10 -11 -5 -3 -10 -1
-10 4 0 6 5 11 10 11 6 0 10 -2 10 -4z m-2870 -46 c0 -5 -2 -10 -4 -10 -3 0
-8 5 -11 10 -3 6 -1 10 4 10 6 0 11 -4 11 -10z m-618 -20 c15 -7 29 -19 32
-27 4 -10 1 -11 -14 -3 -10 5 -22 15 -25 20 -3 6 -17 10 -30 10 -13 0 -27 5
-30 10 -8 13 29 7 67 -10z m702 5 c3 -8 1 -15 -4 -15 -6 0 -10 7 -10 15 0 8 2
15 4 15 2 0 6 -7 10 -15z m3166 -15 c0 -5 -4 -10 -10 -10 -5 0 -10 5 -10 10 0
6 5 10 10 10 6 0 10 -4 10 -10z m-3029 -23 c-10 -9 -11 -8 -5 6 3 10 9 15 12
12 3 -3 0 -11 -7 -18z m2962 8 c-3 -9 -8 -14 -10 -11 -3 3 -2 9 2 15 9 16 15
13 8 -4z m-3678 -5 c3 -5 1 -10 -4 -10 -6 0 -11 5 -11 10 0 6 2 10 4 10 3 0 8
-4 11 -10z m3355 -4 c0 -3 -4 -8 -10 -11 -5 -3 -10 -1 -10 4 0 6 5 11 10 11 6
0 10 -2 10 -4z m-3251 -19 c14 6 14 4 -2 -14 -9 -11 -14 -23 -10 -26 3 -4 2
-7 -4 -7 -17 0 -23 13 -12 27 9 9 8 13 0 13 -6 0 -11 5 -11 12 0 9 3 9 11 1 6
-6 19 -9 28 -6z m3494 -2 c-3 -9 -8 -14 -10 -11 -3 3 -2 9 2 15 9 16 15 13 8
-4z m-3058 -15 c-3 -5 -14 -10 -23 -10 -15 0 -15 2 -2 10 20 13 33 13 25 0z
m551 -17 c-10 -10 -19 5 -10 18 6 11 8 11 12 0 2 -7 1 -15 -2 -18z m-926 13
c0 -2 -7 -9 -15 -16 -13 -11 -14 -10 -9 4 5 14 24 23 24 12z m55 -16 c-3 -5
-11 -10 -16 -10 -6 0 -7 5 -4 10 3 6 11 10 16 10 6 0 7 -4 4 -10z m533 -35
c-3 -3 -9 2 -12 12 -6 14 -5 15 5 6 7 -7 10 -15 7 -18z m372 4 c0 -6 -4 -7
-10 -4 -5 3 -10 11 -10 16 0 6 5 7 10 4 6 -3 10 -11 10 -16z m-900 1 c0 -5 -5
-10 -11 -10 -5 0 -7 5 -4 10 3 6 8 10 11 10 2 0 4 -4 4 -10z m37 4 c-3 -3 -12
-4 -19 -1 -8 3 -5 6 6 6 11 1 17 -2 13 -5z m2510 -21 c-8 -7 -37 9 -31 19 3 5
12 4 20 -3 8 -6 13 -14 11 -16z m-1887 13 c0 -3 -4 -8 -10 -11 -5 -3 -10 -1
-10 4 0 6 5 11 10 11 6 0 10 -2 10 -4z m1819 -10 c-29 -15 -129 -27 -129 -15
0 12 32 19 68 14 17 -2 32 0 32 5 0 6 12 10 28 10 l27 0 -26 -14z m-1199 -6
c0 -5 -6 -10 -14 -10 -8 0 -18 5 -21 10 -3 6 3 10 14 10 12 0 21 -4 21 -10z
m45 0 c3 -5 2 -10 -4 -10 -5 0 -13 5 -16 10 -3 6 -2 10 4 10 5 0 13 -4 16 -10z
m45 -10 c0 -5 -5 -10 -11 -10 -5 0 -7 5 -4 10 3 6 8 10 11 10 2 0 4 -4 4 -10z
m90 0 c12 -8 9 -10 -13 -10 -16 0 -26 4 -22 10 8 12 16 12 35 0z m270 0 c0 -5
-7 -7 -15 -4 -8 4 -15 8 -15 10 0 2 7 4 15 4 8 0 15 -4 15 -10z m570 -11 c0
-5 -4 -9 -8 -9 -5 0 -9 7 -9 15 0 8 4 12 9 9 4 -3 8 -9 8 -15z m-793 5 c-3 -3
-12 -4 -19 -1 -8 3 -5 6 6 6 11 1 17 -2 13 -5z m598 -4 c3 -5 1 -10 -4 -10 -6
0 -11 5 -11 10 0 6 2 10 4 10 3 0 8 -4 11 -10z m722 4 c-3 -3 -12 -4 -19 -1
-8 3 -5 6 6 6 11 1 17 -2 13 -5z m-787 -19 c0 -8 -4 -15 -10 -15 -5 0 -10 7
-10 15 0 8 5 15 10 15 6 0 10 -7 10 -15z m-86 -4 c3 -4 -4 -7 -14 -6 -27 2
-33 10 -10 12 11 1 22 -2 24 -6z m-1474 -31 c0 -5 -5 -10 -11 -10 -5 0 -7 5
-4 10 3 6 8 10 11 10 2 0 4 -4 4 -10z m430 0 c-20 -13 -33 -13 -25 0 3 6 14
10 23 10 15 0 15 -2 2 -10z m-57 -26 c9 -4 17 -10 17 -16 0 -5 -8 -5 -18 1
-13 7 -23 6 -30 -1 -9 -9 -12 -9 -12 1 0 7 -4 9 -10 6 -5 -3 -10 -2 -10 4 0
11 21 21 35 15 6 -2 18 -7 28 -10z m162 6 c3 -5 2 -10 -4 -10 -5 0 -13 5 -16
10 -3 6 -2 10 4 10 5 0 13 -4 16 -10z m35 -4 c0 -3 -4 -8 -10 -11 -5 -3 -10
-1 -10 4 0 6 5 11 10 11 6 0 10 -2 10 -4z m-386 -22 c3 -8 2 -12 -4 -9 -6 3
-10 10 -10 16 0 14 7 11 14 -7z m112 4 c4 -7 3 -8 -5 -4 -6 4 -19 2 -27 -5 -8
-6 -18 -9 -21 -5 -8 8 15 26 34 26 6 0 15 -5 19 -12z m467 -5 c-7 -2 -19 -2
-25 0 -7 3 -2 5 12 5 14 0 19 -2 13 -5z m1347 -3 c0 -5 -8 -10 -17 -10 -15 0
-16 2 -3 10 19 12 20 12 20 0z m-108 -22 c-7 -7 -12 -8 -12 -2 0 14 12 26 19
19 2 -3 -1 -11 -7 -17z"/>
<path d="M5688 5650 c-3 -9 -26 -13 -83 -12 -44 1 -84 -3 -91 -9 -7 -6 -52
-12 -99 -12 -47 -1 -85 -5 -85 -8 0 -3 -11 -4 -25 -1 -16 3 -25 0 -25 -8 0
-10 -3 -10 -14 -1 -10 8 -15 9 -18 1 -2 -7 -13 -7 -36 1 -30 10 -55 9 -99 -8
-15 -6 -16 -4 -5 9 10 13 10 17 -3 22 -8 3 -15 1 -15 -4 0 -5 -7 -7 -15 -4
-14 6 -20 -6 -16 -30 1 -4 -14 -24 -34 -43 -20 -20 -37 -44 -38 -54 -1 -11 -5
-19 -10 -19 -5 0 -16 -8 -25 -17 -16 -16 -16 -16 1 -10 9 3 17 2 17 -3 0 -6
-5 -10 -11 -10 -6 0 -9 -7 -5 -15 3 -8 2 -15 -3 -15 -14 0 -82 -71 -76 -80 3
-5 -4 -19 -15 -30 -11 -11 -18 -25 -15 -30 4 -6 0 -10 -8 -10 -8 0 -18 -7 -21
-16 -3 -8 -2 -12 4 -9 6 3 10 1 10 -5 0 -6 -7 -13 -16 -17 -8 -3 -13 -12 -10
-19 3 -8 -1 -14 -9 -14 -17 0 -45 -27 -45 -43 0 -8 3 -7 9 2 5 8 11 9 15 3 7
-11 -21 -25 -35 -16 -5 3 -9 -2 -9 -10 0 -9 5 -16 11 -16 5 0 7 -4 4 -10 -3
-5 -13 -10 -21 -10 -15 0 -54 -35 -54 -48 0 -5 -11 -18 -25 -30 -14 -12 -25
-28 -25 -34 1 -8 6 -6 14 5 14 18 26 22 26 9 0 -4 -13 -16 -30 -25 -16 -10
-30 -23 -30 -29 0 -6 -11 -25 -24 -42 -13 -17 -23 -35 -24 -40 0 -5 -6 -12
-14 -17 -7 -5 -13 -16 -13 -26 0 -10 -6 -18 -13 -18 -17 0 -42 -34 -42 -57 0
-10 -7 -18 -16 -18 -8 0 -13 -4 -10 -8 3 -5 -4 -15 -15 -22 -10 -8 -19 -19
-19 -26 0 -6 -13 -30 -30 -52 -16 -23 -31 -47 -32 -54 -2 -7 -15 -18 -31 -25
-15 -7 -30 -20 -34 -30 -4 -10 -16 -34 -28 -53 -12 -19 -20 -41 -18 -47 3 -7
-3 -13 -12 -13 -9 0 -13 -4 -10 -10 3 -5 1 -10 -4 -10 -6 0 -10 -3 -9 -7 2
-12 -13 -46 -30 -65 -8 -10 -12 -18 -8 -18 4 0 -7 -12 -24 -26 -23 -20 -28
-29 -18 -35 9 -6 8 -10 -6 -15 -13 -5 -16 -13 -11 -31 4 -18 2 -23 -9 -21 -14
3 -64 -64 -99 -133 -10 -19 -36 -58 -57 -87 -22 -29 -37 -52 -34 -52 3 0 -4
-14 -16 -31 -12 -16 -19 -33 -16 -36 3 -3 2 -11 -3 -17 -19 -24 -51 -87 -51
-102 0 -8 -4 -12 -10 -9 -5 3 -13 -7 -16 -22 -4 -15 -14 -34 -23 -41 -9 -8
-11 -11 -4 -8 6 4 14 2 17 -3 3 -5 -5 -12 -19 -15 -14 -4 -25 -11 -25 -16 0
-5 7 -7 15 -4 8 4 15 1 15 -5 0 -6 -11 -11 -24 -11 -20 0 -23 -4 -18 -22 3
-14 1 -19 -6 -14 -7 4 -14 -4 -18 -21 -4 -15 -20 -52 -35 -82 -22 -41 -26 -57
-18 -72 8 -16 6 -19 -9 -19 -10 0 -25 -12 -33 -27 -8 -16 -20 -32 -27 -36 -7
-5 -11 -16 -8 -25 3 -9 1 -24 -5 -32 -9 -13 -10 -12 -5 3 6 20 -9 23 -17 3 -3
-7 0 -19 6 -25 9 -9 8 -11 -7 -5 -14 5 -17 3 -14 -7 3 -8 -1 -20 -9 -27 -7 -7
-13 -22 -13 -33 0 -10 -7 -19 -15 -19 -18 0 -20 -16 -2 -23 6 -3 1 -6 -13 -7
-14 -1 -19 -4 -12 -7 20 -8 14 -51 -10 -67 -25 -18 -30 -34 -32 -94 -1 -25 -5
-41 -12 -38 -16 6 -32 -27 -30 -61 1 -20 -2 -29 -10 -26 -6 2 -14 -8 -18 -24
-4 -15 -11 -44 -16 -63 -27 -101 -42 -180 -44 -221 -2 -25 -6 -51 -10 -57 -4
-7 -2 -12 4 -12 7 0 8 -6 2 -17 -11 -22 10 -135 27 -141 6 -2 11 -16 11 -32 0
-16 7 -35 15 -43 8 -8 11 -17 8 -20 -3 -4 2 -18 11 -31 9 -14 16 -33 16 -42 0
-10 5 -14 16 -10 9 3 12 2 9 -4 -4 -6 9 -29 27 -52 18 -23 38 -51 43 -61 6
-11 28 -29 50 -41 22 -11 41 -24 43 -28 2 -5 10 -8 18 -8 7 0 11 -6 8 -14 -3
-7 2 -16 10 -19 9 -4 16 -2 16 2 0 5 9 7 21 4 14 -4 17 -8 9 -13 -11 -7 79
-40 108 -40 6 0 12 -6 15 -12 2 -9 23 -13 60 -12 32 0 57 -3 57 -6 0 -6 34
-12 225 -36 28 -3 100 -7 160 -9 61 -2 128 -6 150 -10 22 -4 64 -7 92 -8 29
-1 53 -5 53 -9 0 -4 10 -4 23 1 12 5 60 7 107 4 47 -2 103 -3 125 -2 22 0 45
0 50 0 83 -7 105 -7 105 0 0 5 10 5 23 0 40 -15 122 -18 120 -4 -2 7 2 13 7
13 6 0 10 -4 10 -9 0 -13 134 -10 143 3 5 8 9 8 15 -1 5 -9 33 -11 92 -7 47 2
92 4 100 3 83 -5 281 4 298 14 6 5 12 4 12 -2 0 -7 8 -7 24 -1 13 5 42 6 65 4
33 -4 41 -2 41 11 0 14 3 14 25 -1 19 -13 28 -14 39 -5 9 7 17 8 20 2 7 -10
44 -4 63 11 7 6 14 5 18 -2 5 -7 28 -9 68 -5 34 3 81 6 105 7 33 0 42 4 38 14
-3 8 -1 14 4 14 6 0 10 -7 10 -16 0 -13 8 -15 38 -10 20 3 71 6 112 8 41 1 83
5 93 10 11 6 17 5 17 -2 0 -11 232 -9 385 4 39 3 124 9 190 12 66 3 129 6 140
7 11 0 23 6 27 11 5 8 8 8 8 0 0 -11 204 -11 241 1 10 4 19 2 19 -4 0 -12 64
-5 68 9 2 5 10 10 18 10 8 0 14 5 14 11 0 5 8 9 18 8 9 -2 28 3 42 10 17 10
25 11 28 3 3 -9 7 -8 17 1 8 6 22 18 30 26 9 7 14 19 11 26 -2 7 3 12 12 11
18 -1 81 105 82 137 0 20 16 51 47 90 12 15 27 46 34 69 6 22 24 68 40 101 16
33 30 73 31 89 2 18 8 28 19 28 9 0 24 8 33 19 21 23 10 28 -57 27 -26 -1 -47
3 -47 7 0 5 -10 5 -22 1 -35 -11 -128 -10 -128 1 0 6 -4 4 -9 -4 -5 -8 -14
-10 -21 -6 -19 12 -90 12 -90 0 0 -5 -4 -5 -8 1 -4 7 -32 11 -70 10 -35 -1
-65 2 -68 6 -3 5 -12 4 -20 -3 -10 -8 -14 -8 -14 0 0 7 -19 9 -57 6 -125 -11
-143 -12 -143 -3 0 4 -7 8 -16 8 -8 0 -12 -5 -9 -10 3 -6 2 -10 -4 -10 -5 0
-12 6 -14 13 -4 9 -6 9 -6 -1 -1 -7 -6 -10 -12 -6 -6 4 -93 8 -193 9 -99 2
-181 4 -181 5 0 5 -92 9 -105 4 -8 -3 -118 -7 -245 -9 -126 -1 -238 -6 -247
-10 -9 -3 -25 -3 -35 2 -23 11 -271 9 -297 -2 -14 -6 -17 -5 -12 3 10 16 -16
16 -32 0 -7 -7 -12 -8 -12 -2 0 5 -13 10 -29 9 -16 0 -27 -3 -25 -6 2 -4 -6
-7 -19 -8 -12 0 -29 -1 -37 -1 -8 -1 -34 2 -57 6 -33 5 -43 3 -43 -7 0 -8 -5
-6 -13 6 -10 13 -16 15 -21 6 -4 -6 -12 -9 -17 -6 -5 4 -9 1 -9 -5 0 -6 -5 -8
-12 -3 -24 14 -89 10 -98 -6 -6 -10 -10 -11 -10 -4 0 9 -12 11 -42 7 -24 -3
-47 -6 -53 -5 -5 1 -70 3 -143 6 -72 2 -136 7 -142 10 -5 3 -18 -3 -28 -13
-18 -18 -19 -18 -51 0 -18 11 -36 16 -39 13 -3 -3 0 -5 6 -5 7 0 12 -4 12 -10
0 -9 -11 -8 -48 7 -9 4 -54 7 -98 7 -68 1 -81 -1 -77 -14 3 -8 -6 -3 -19 12
-15 18 -37 29 -65 34 -24 4 -43 11 -43 17 0 5 -10 2 -21 -9 -22 -19 -22 -19
-10 3 10 21 8 24 -30 44 -34 17 -41 18 -36 5 3 -8 2 -18 -3 -21 -6 -4 -10 1
-10 10 0 9 -10 26 -22 39 -44 44 -71 105 -64 144 4 26 2 32 -4 22 -8 -12 -10
-11 -10 7 0 12 5 25 11 29 6 3 9 19 5 35 -3 16 -1 29 4 29 6 0 10 9 10 19 0
11 4 22 9 25 4 3 11 19 14 35 3 16 20 50 37 77 16 26 30 55 30 65 0 9 9 28 20
42 11 14 20 30 20 36 0 6 5 11 10 11 12 0 13 27 1 32 -4 2 -5 12 0 23 8 20 8
20 8 0 1 -15 6 -11 20 15 10 19 17 38 14 43 -2 4 1 7 7 7 6 0 9 4 6 9 -3 5 1
14 9 21 8 7 15 19 15 26 0 8 5 14 10 14 6 0 10 9 10 19 0 11 4 22 9 25 5 3 12
17 15 31 4 14 22 47 40 73 41 57 76 125 76 147 0 9 7 18 16 22 15 6 15 8 -2
21 -14 11 -15 13 -3 9 18 -6 61 43 58 66 -3 26 2 37 16 37 8 0 15 6 15 14 0 8
7 22 16 30 8 9 12 16 8 16 -4 0 3 12 17 26 16 18 20 28 12 31 -7 3 -13 9 -13
14 0 4 6 6 13 4 6 -3 21 10 32 29 11 19 37 60 58 91 21 32 39 66 40 76 1 10 7
21 14 23 7 3 13 12 13 19 0 8 7 20 15 27 8 7 15 21 15 31 0 11 5 19 11 19 5 0
8 4 5 9 -3 5 1 14 9 21 8 7 15 19 15 26 0 8 5 14 10 14 6 0 10 7 10 15 0 8 4
15 9 15 5 0 11 8 15 18 3 9 9 24 13 32 5 12 3 13 -8 5 -8 -5 -5 -1 8 10 13 12
23 32 23 48 0 15 5 27 10 27 6 0 10 7 10 15 0 8 6 12 14 9 14 -5 43 32 38 50
-2 4 9 23 23 41 14 19 25 39 25 44 0 17 23 54 48 76 12 11 22 25 22 31 0 6 22
39 50 75 27 35 45 66 40 67 -6 2 -10 8 -10 13 0 4 7 6 15 3 11 -5 15 1 15 20
0 14 4 26 9 26 5 0 13 10 17 23 4 12 10 24 13 27 15 12 86 118 111 168 16 29
26 61 23 70 -4 9 -2 13 4 9 12 -8 43 34 43 58 0 9 4 14 8 11 5 -3 16 14 26 37
9 23 22 49 27 57 5 8 15 27 21 41 6 14 21 30 32 35 13 5 21 19 22 34 1 40 -13
50 -61 44 -39 -6 -43 -5 -49 20 -3 14 -13 26 -21 26 -8 0 -15 5 -15 10 0 6
-11 10 -24 10 -13 0 -27 6 -30 13 -4 7 -8 8 -11 2 -3 -7 -29 -9 -63 -7 -43 2
-61 8 -73 24 -12 15 -18 17 -21 8z m-98 -30 c0 -5 -10 -10 -22 -9 -22 0 -22 1
-3 9 11 5 21 9 23 9 1 1 2 -3 2 -9z m-480 -54 c0 -3 -4 -8 -10 -11 -5 -3 -10
-1 -10 4 0 6 5 11 10 11 6 0 10 -2 10 -4z m700 -46 c0 -5 -4 -10 -10 -10 -5 0
-10 5 -10 10 0 6 5 10 10 10 6 0 10 -4 10 -10z m200 -35 c0 -5 -5 -3 -10 5 -5
8 -10 20 -10 25 0 6 5 3 10 -5 5 -8 10 -19 10 -25z m-540 21 c0 -3 -4 -8 -10
-11 -5 -3 -10 -1 -10 4 0 6 5 11 10 11 6 0 10 -2 10 -4z m83 -11 c16 -10 32
-12 52 -6 19 5 37 4 48 -3 13 -8 20 -8 27 4 5 8 10 10 10 4 0 -17 62 -27 71
-12 6 9 11 8 24 -2 15 -12 19 -11 36 10 11 14 18 18 17 10 -2 -8 3 -14 10 -12
6 1 12 -3 12 -10 0 -6 7 -4 18 5 24 22 32 21 32 0 0 -15 -2 -16 -10 -3 -8 12
-10 12 -16 -3 -4 -10 -13 -16 -20 -13 -8 3 -14 -1 -14 -9 0 -8 -5 -15 -11 -15
-6 0 -9 -7 -5 -15 3 -8 1 -15 -4 -15 -5 0 -6 -7 -3 -17 4 -10 2 -14 -4 -10 -6
4 -14 -4 -17 -18 -4 -15 -17 -30 -31 -35 -15 -6 -25 -17 -25 -29 0 -11 -9 -21
-21 -24 -12 -3 -18 -10 -15 -15 3 -6 -1 -12 -9 -16 -8 -3 -15 -10 -15 -16 0
-6 6 -8 13 -4 6 4 -5 -9 -26 -29 -21 -20 -35 -37 -31 -37 4 0 -4 -10 -18 -22
-27 -24 -43 -62 -39 -89 1 -10 -8 -19 -24 -23 -14 -4 -25 -14 -25 -23 0 -8
-12 -26 -27 -40 -17 -14 -21 -21 -10 -17 28 10 10 -21 -20 -35 -16 -7 -23 -17
-19 -26 3 -9 0 -15 -9 -15 -8 0 -15 -9 -15 -20 0 -11 -4 -20 -10 -20 -9 0 -43
-64 -46 -85 0 -5 -2 -16 -2 -23 -1 -7 -7 -10 -13 -7 -6 4 -10 1 -8 -6 3 -27
-1 -39 -13 -36 -6 1 -16 -7 -22 -18 -6 -11 -18 -31 -26 -45 -8 -14 -13 -33
-11 -42 1 -11 -4 -18 -13 -18 -13 0 -15 -8 -10 -40 5 -28 3 -40 -5 -40 -8 0
-10 8 -6 21 5 15 4 19 -5 14 -6 -4 -10 -18 -7 -31 3 -18 0 -24 -14 -24 -10 0
-21 -5 -25 -12 -5 -8 -2 -9 9 -5 10 3 17 2 17 -3 0 -6 -9 -10 -20 -10 -14 0
-20 -6 -18 -17 2 -10 -3 -17 -9 -16 -7 2 -13 -3 -13 -10 0 -7 -8 -22 -17 -33
-40 -44 -64 -86 -59 -100 3 -8 1 -14 -5 -14 -6 0 -8 -4 -4 -9 3 -5 -4 -12 -15
-16 -11 -4 -18 -10 -15 -15 3 -5 -4 -19 -15 -30 -13 -13 -19 -28 -15 -39 4
-12 -2 -21 -20 -29 -22 -10 -30 -31 -27 -63 1 -4 -10 -17 -23 -29 -14 -13 -25
-29 -25 -37 0 -7 -5 -13 -12 -13 -6 0 -8 -3 -5 -7 4 -3 -1 -12 -11 -19 -16
-11 -16 -14 3 -35 16 -18 16 -21 2 -10 -9 8 -21 11 -24 7 -4 -4 -1 -12 7 -17
11 -8 10 -9 -7 -4 -18 5 -22 3 -17 -9 3 -9 2 -16 -2 -16 -13 0 -37 -58 -29
-70 3 -5 0 -10 -8 -10 -16 0 -41 -26 -51 -54 -5 -14 -3 -17 11 -12 15 6 14 3
-3 -16 -12 -13 -34 -51 -50 -85 -15 -34 -32 -59 -36 -57 -4 3 -8 -4 -8 -16 0
-13 -4 -19 -12 -14 -8 5 -9 0 -6 -14 4 -14 2 -22 -7 -22 -18 0 -57 -96 -49
-122 4 -13 2 -18 -4 -14 -10 6 -36 -28 -37 -49 0 -5 -3 -10 -7 -10 -11 0 -59
-96 -53 -106 4 -5 1 -9 -4 -9 -6 0 -14 -18 -17 -40 -4 -22 -11 -40 -16 -40 -5
0 -7 -9 -3 -20 4 -14 2 -18 -7 -15 -9 4 -18 -9 -27 -39 -7 -25 -18 -44 -23
-43 -6 1 -19 -13 -29 -30 -10 -18 -14 -33 -8 -33 6 0 7 -5 4 -10 -4 -6 -11 -8
-16 -5 -5 4 -10 -1 -10 -9 -7 -82 -27 -156 -51 -183 -23 -26 -32 -63 -16 -63
10 0 10 -2 1 -8 -7 -4 -14 -17 -16 -27 -2 -11 -9 -31 -16 -45 -10 -17 -11 -25
-2 -28 6 -2 9 -8 6 -12 -7 -12 42 -89 60 -97 8 -3 15 -12 15 -20 0 -19 29 -42
52 -43 9 0 29 -5 45 -12 15 -6 32 -12 36 -12 4 -1 12 -8 17 -16 6 -9 26 -16
51 -16 102 -4 231 -14 240 -20 6 -3 16 0 24 6 11 9 15 9 15 1 0 -6 6 -11 13
-11 6 0 24 -6 39 -14 16 -9 53 -14 92 -13 36 1 66 -1 66 -5 0 -4 28 -5 63 -2
34 3 69 5 77 4 21 -2 310 -2 403 0 42 1 77 6 77 11 0 5 5 9 11 9 5 0 7 -4 4
-10 -3 -5 1 -10 9 -10 9 0 16 5 16 11 0 5 5 7 12 3 16 -10 58 -14 58 -5 0 4
14 6 30 3 17 -2 37 1 45 8 8 7 15 9 15 4 0 -10 103 -10 119 0 5 4 12 2 16 -4
3 -5 11 -10 16 -10 6 0 7 5 3 12 -4 7 -3 8 4 4 19 -12 35 3 21 20 -8 10 -8 14
0 14 6 0 13 -11 17 -24 5 -22 9 -23 67 -19 34 3 67 9 72 12 6 4 34 6 63 5 43
-3 52 0 52 13 0 15 2 15 13 -2 10 -12 16 -14 21 -7 4 7 2 12 -5 12 -7 0 -2 11
11 25 13 14 26 23 28 20 3 -3 -3 -12 -14 -20 -15 -11 -16 -14 -4 -15 9 0 21 5
28 12 9 9 12 8 12 -5 0 -9 -3 -16 -7 -15 -5 2 -9 -1 -10 -7 -2 -5 7 -10 20
-10 12 1 25 -4 29 -10 5 -6 8 -6 8 3 0 6 7 12 15 12 8 0 15 -4 15 -9 0 -5 34
-8 76 -8 60 2 77 5 85 19 6 10 15 18 21 18 7 0 7 -4 -1 -14 -9 -10 -8 -15 4
-20 10 -3 15 1 15 12 1 16 1 16 10 0 8 -13 21 -16 59 -13 28 1 54 6 60 10 6 3
11 2 11 -4 0 -5 15 -10 33 -10 17 0 54 0 81 0 56 -1 64 3 47 23 -9 11 -8 15 7
18 20 6 50 -28 31 -34 -6 -2 17 -4 50 -4 34 0 61 3 61 8 0 4 5 8 11 8 5 0 8
-4 5 -9 -8 -12 117 -8 126 4 5 6 8 5 8 -2 0 -8 13 -13 31 -13 17 0 28 4 24 10
-3 6 -1 10 4 10 6 0 11 -4 11 -10 0 -5 11 -10 25 -10 14 0 25 4 25 10 0 5 -7
6 -17 3 -10 -4 -14 -2 -9 5 4 6 26 9 59 6 39 -4 392 -7 392 -4 0 1 21 2 47 3
32 2 49 -2 52 -10 6 -15 -10 -54 -41 -102 -13 -19 -23 -43 -23 -54 0 -11 -3
-17 -7 -14 -7 7 -23 -17 -48 -73 -9 -19 -41 -58 -70 -87 l-54 -51 -81 3 c-44
2 -83 -1 -86 -7 -4 -5 -11 -5 -19 2 -13 11 -145 11 -145 0 0 -7 -54 -5 -67 3
-6 4 -31 4 -55 1 -49 -8 -112 -7 -146 1 -15 4 -21 2 -17 -5 3 -5 1 -10 -4 -10
-6 0 -11 4 -11 8 0 4 -9 8 -20 9 -11 1 -20 -3 -20 -9 0 -6 -6 -5 -16 3 -9 7
-18 9 -22 3 -9 -12 -35 -17 -28 -5 3 5 -3 11 -14 14 -11 3 -18 1 -14 -4 6 -11
-10 -12 -20 -1 -9 9 -76 10 -70 1 2 -4 -12 -9 -31 -11 -27 -3 -35 0 -35 12 -1
13 -3 12 -14 -2 -10 -14 -15 -15 -25 -5 -8 8 -14 8 -19 2 -9 -13 -61 -15 -267
-13 -38 0 -90 0 -115 0 -210 -2 -285 -4 -292 -8 -4 -3 -8 0 -8 6 0 7 -8 9 -19
5 -10 -3 -45 -7 -78 -9 -34 -2 -70 -9 -80 -15 -15 -7 -29 -7 -51 1 -23 9 -42
9 -72 2 -25 -7 -40 -8 -40 -1 0 5 -15 6 -35 3 -20 -4 -101 -7 -180 -7 -86 -1
-148 -5 -151 -11 -4 -6 -10 -5 -15 3 -7 11 -9 11 -9 -1 0 -13 -1 -13 -11 0 -6
8 -12 11 -15 5 -3 -8 -116 -13 -134 -5 -3 1 -47 4 -97 7 -64 3 -93 1 -93 -7 0
-6 -11 -3 -26 7 -22 14 -29 14 -46 4 -16 -10 -18 -10 -12 0 5 9 2 10 -9 6 -10
-4 -25 -10 -34 -13 -16 -5 -16 -4 -3 6 12 9 8 10 -20 5 -80 -15 -140 -17 -140
-3 0 10 -3 9 -10 -2 -6 -10 -13 -11 -17 -5 -11 14 -65 16 -81 2 -8 -6 -16 -7
-20 -1 -4 5 -38 10 -77 10 -38 1 -77 3 -85 5 -8 2 -14 -1 -13 -8 2 -9 -4 -10
-23 -3 -15 6 -58 12 -98 14 -39 2 -78 6 -86 9 -8 4 -38 8 -66 10 -28 2 -55 6
-60 9 -5 2 -24 4 -41 2 -18 -1 -33 2 -33 6 0 12 -57 33 -69 25 -6 -3 -14 1
-17 10 -4 9 -12 14 -19 11 -7 -2 -15 4 -18 14 -3 10 -18 21 -36 25 -17 4 -31
12 -31 18 0 7 -26 30 -56 52 -31 22 -63 49 -70 60 -13 17 -16 18 -24 5 -9 -13
-11 -13 -20 0 -6 9 -6 18 0 24 15 15 12 26 -5 26 -8 0 -15 -5 -15 -11 0 -5 -5
-7 -11 -4 -6 5 -4 11 7 19 16 12 16 14 -5 35 -12 12 -26 19 -31 16 -6 -4 -10
-2 -10 4 0 5 5 11 12 13 8 3 8 12 -3 36 -13 31 -37 47 -26 18 4 -10 1 -13 -9
-9 -17 6 -19 30 -2 35 9 3 9 12 0 38 -8 21 -9 37 -3 44 6 7 6 17 2 24 -4 7 -6
34 -4 60 2 26 5 61 6 77 1 17 4 32 7 35 13 12 41 88 45 120 2 19 11 40 20 46
8 6 15 18 15 26 0 9 8 26 18 39 32 45 43 70 37 89 -4 12 0 22 12 29 10 5 32
36 48 68 17 32 34 61 39 64 5 4 10 15 11 25 4 33 17 64 26 64 5 0 14 10 19 23
13 29 33 60 43 68 5 3 8 9 8 13 0 3 8 25 19 48 10 24 21 54 24 68 3 14 17 38
31 54 14 17 23 36 21 43 -3 7 -2 13 2 13 9 0 42 58 42 75 0 8 6 20 13 27 26
27 77 107 77 122 0 9 4 16 9 16 5 0 24 24 42 53 18 28 36 54 39 57 6 6 34 54
57 100 10 19 21 36 25 38 4 2 10 19 14 38 3 19 10 34 14 34 4 0 20 24 35 53
31 56 65 108 78 118 5 3 14 18 22 32 10 19 10 28 1 38 -8 9 -7 10 8 5 13 -4
17 -2 13 8 -4 9 3 17 16 21 21 6 22 6 2 14 -19 8 -19 8 3 15 12 4 22 11 22 16
0 5 6 15 13 22 27 27 56 76 50 82 -3 3 1 6 10 6 17 0 43 37 33 47 -3 3 3 18
14 33 11 15 17 30 14 33 -3 3 4 10 15 17 12 6 21 20 21 30 0 12 7 20 16 20 10
0 14 6 10 15 -3 9 0 15 9 15 8 0 15 5 15 10 0 12 35 64 63 92 9 10 17 25 17
33 0 8 4 15 9 15 5 0 16 15 24 33 9 18 27 46 42 62 14 17 31 42 37 57 7 15 16
24 21 21 5 -3 8 0 5 8 -3 8 6 22 19 32 13 10 23 23 23 28 0 6 10 20 23 33 12
12 31 39 42 59 11 20 26 37 33 37 9 0 12 6 8 16 -3 9 -2 12 5 9 6 -4 13 2 16
14 3 12 10 21 15 21 6 0 8 13 4 33 -3 17 -3 27 2 20 5 -8 15 -4 35 12 15 13
27 27 27 30 0 20 68 64 117 76 61 15 82 18 191 20 56 1 102 4 102 6 0 2 -10 8
-22 13 -18 7 -19 9 -5 9 10 1 28 -6 40 -14z m-633 -150 c-7 -8 -17 -15 -22
-15 -6 0 -5 7 2 15 7 8 17 15 22 15 6 0 5 -7 -2 -15z m960 -64 c0 -5 -7 -11
-14 -14 -10 -4 -13 -1 -9 9 6 15 23 19 23 5z m-380 -641 c0 -5 -10 -15 -22
-21 -23 -12 -23 -12 -4 10 21 23 26 26 26 11z m-1044 -36 c-11 -7 -22 -12 -25
-9 -2 3 4 12 15 19 10 8 21 12 24 9 3 -2 -4 -11 -14 -19z m-26 -34 c0 -5 -5
-10 -11 -10 -5 0 -7 5 -4 10 3 6 8 10 11 10 2 0 4 -4 4 -10z m1020 -60 c0 -5
-2 -10 -4 -10 -3 0 -8 5 -11 10 -3 6 -1 10 4 10 6 0 11 -4 11 -10z m-1070 -14
c0 -3 -4 -8 -10 -11 -5 -3 -10 -1 -10 4 0 6 5 11 10 11 6 0 10 -2 10 -4z m760
-430 c0 -3 -4 -8 -10 -11 -5 -3 -10 -1 -10 4 0 6 5 11 10 11 6 0 10 -2 10 -4z
m-20 -66 c0 -5 -2 -10 -4 -10 -3 0 -8 5 -11 10 -3 6 -1 10 4 10 6 0 11 -4 11
-10z m-107 -20 c-5 -19 -23 -29 -23 -12 0 7 20 32 26 32 1 0 0 -9 -3 -20z
m-28 -70 c3 -5 1 -10 -4 -10 -6 0 -11 5 -11 10 0 6 2 10 4 10 3 0 8 -4 11 -10z
m-25 -30 c0 -5 -5 -10 -11 -10 -5 0 -7 5 -4 10 3 6 8 10 11 10 2 0 4 -4 4 -10z
m-30 -49 c0 -6 -4 -13 -10 -16 -5 -3 -10 1 -10 9 0 9 5 16 10 16 6 0 10 -4 10
-9z m50 -131 c0 -5 -4 -10 -10 -10 -5 0 -10 5 -10 10 0 6 5 10 10 10 6 0 10
-4 10 -10z m-1235 -400 c-3 -5 -12 -10 -18 -10 -7 0 -6 4 3 10 19 12 23 12 15
0z m735 -452 c0 -16 -3 -19 -11 -11 -6 6 -8 16 -5 22 11 17 16 13 16 -11z
m-140 -174 c0 -1 -3 -9 -6 -18 -9 -22 -29 -20 -31 3 -1 14 4 19 18 18 10 -1
19 -2 19 -3z m145 -34 c3 -5 1 -10 -4 -10 -6 0 -11 5 -11 10 0 6 2 10 4 10 3
0 8 -4 11 -10z m-125 -42 c0 -6 -7 -5 -15 2 -8 7 -15 17 -15 22 0 6 7 5 15 -2
8 -7 15 -17 15 -22z m-43 -24 c-3 -3 -12 -4 -19 -1 -8 3 -5 6 6 6 11 1 17 -2
13 -5z m-907 -28 c0 -2 -7 -9 -15 -16 -13 -11 -14 -10 -9 4 5 14 24 23 24 12z
m1181 -14 c-7 -2 -18 1 -23 6 -8 8 -4 9 13 5 13 -4 18 -8 10 -11z m-224 -8
c-3 -3 -12 -4 -19 -1 -8 3 -5 6 6 6 11 1 17 -2 13 -5z m228 -14 c3 -5 1 -10
-4 -10 -6 0 -11 5 -11 10 0 6 2 10 4 10 3 0 8 -4 11 -10z m-1220 -10 c-3 -5
-12 -10 -18 -10 -7 0 -6 4 3 10 19 12 23 12 15 0z m1155 -14 c0 -11 -19 -15
-25 -6 -3 5 1 10 9 10 9 0 16 -2 16 -4z m110 -17 c0 -5 -7 -9 -15 -9 -9 0 -12
6 -9 15 6 15 24 11 24 -6z m-1260 1 c0 -5 -7 -10 -16 -10 -8 0 -12 5 -9 10 3
6 10 10 16 10 5 0 9 -4 9 -10z m1295 0 c3 -5 1 -10 -4 -10 -6 0 -11 5 -11 10
0 6 2 10 4 10 3 0 8 -4 11 -10z m-244 -24 c10 6 12 -9 2 -19 -10 -10 -34 14
-26 26 5 8 8 7 11 -1 2 -7 8 -10 13 -6z m375 -9 c8 3 14 0 14 -6 0 -5 -13 -9
-30 -8 -31 2 -40 12 -17 20 6 2 13 0 15 -4 2 -4 10 -5 18 -2z m1267 -22 c-3
-9 -8 -14 -10 -11 -3 3 -2 9 2 15 9 16 15 13 8 -4z m147 4 c0 -15 -29 -17 -47
-4 -16 13 -15 14 14 12 18 -1 33 -5 33 -8z m-200 -15 c0 -2 -7 -4 -15 -4 -8 0
-15 4 -15 10 0 5 7 7 15 4 8 -4 15 -8 15 -10z m340 -4 c0 -5 -2 -10 -4 -10 -3
0 -8 5 -11 10 -3 6 -1 10 4 10 6 0 11 -4 11 -10z m1123 -7 c3 -5 -6 -9 -19 -9
-13 -1 -21 2 -18 7 6 11 31 12 37 2z m112 -3 c3 -5 2 -10 -4 -10 -5 0 -13 5
-16 10 -3 6 -2 10 4 10 5 0 13 -4 16 -10z m-755 -10 c0 -5 -2 -10 -4 -10 -3 0
-8 5 -11 10 -3 6 -1 10 4 10 6 0 11 -4 11 -10z m87 3 c-9 -2 -15 -9 -12 -14 9
-13 -9 -11 -24 4 -11 10 -13 10 -7 0 4 -8 1 -13 -8 -13 -10 0 -13 6 -10 15 4
10 19 15 43 14 20 -1 28 -3 18 -6z m733 3 c0 -3 -4 -8 -10 -11 -5 -3 -10 -1
-10 4 0 6 5 11 10 11 6 0 10 -2 10 -4z m26 -23 c-10 -10 -19 5 -10 18 6 11 8
11 12 0 2 -7 1 -15 -2 -18z m44 23 c0 -2 -7 -7 -16 -10 -8 -3 -12 -2 -9 4 6
10 25 14 25 6z m-2870 -16 c8 -5 11 -10 5 -10 -5 0 -17 5 -25 10 -8 5 -10 10
-5 10 6 0 17 -5 25 -10z m1900 6 c0 -2 -13 -6 -29 -8 -17 -2 -28 -1 -25 4 5 8
54 12 54 4z m-605 -46 c3 -5 1 -10 -4 -10 -6 0 -11 5 -11 10 0 6 2 10 4 10 3
0 8 -4 11 -10z m1901 -17 c-10 -10 -19 5 -10 18 6 11 8 11 12 0 2 -7 1 -15 -2
-18z m-1729 11 c-3 -3 -12 -4 -19 -1 -8 3 -5 6 6 6 11 1 17 -2 13 -5z m1506
-1 c-7 -2 -21 -2 -30 0 -10 3 -4 5 12 5 17 0 24 -2 18 -5z m-2853 -13 c0 -5
-2 -10 -4 -10 -3 0 -8 5 -11 10 -3 6 -1 10 4 10 6 0 11 -4 11 -10z m1450 1 c0
-6 -4 -13 -10 -16 -5 -3 -10 1 -10 9 0 9 5 16 10 16 6 0 10 -4 10 -9z m-1320
-5 c0 -3 -4 -8 -10 -11 -5 -3 -10 -1 -10 4 0 6 5 11 10 11 6 0 10 -2 10 -4z
m1827 -22 c-9 -9 -28 6 -21 18 4 6 10 6 17 -1 6 -6 8 -13 4 -17z m-62 -4 c3
-5 1 -10 -4 -10 -6 0 -11 5 -11 10 0 6 2 10 4 10 3 0 8 -4 11 -10z m1145 -30
c0 -5 -4 -10 -10 -10 -5 0 -10 5 -10 10 0 6 5 10 10 10 6 0 10 -4 10 -10z
m-4562 -25 c-3 -3 -9 2 -12 12 -6 14 -5 15 5 6 7 -7 10 -15 7 -18z m-3 -95
c-3 -5 -12 -10 -18 -10 -7 0 -6 4 3 10 19 12 23 12 15 0z m4525 -5 c0 -8 -2
-15 -4 -15 -2 0 -6 7 -10 15 -3 8 -1 15 4 15 6 0 10 -7 10 -15z m-4354 -39
c15 -16 18 -26 6 -26 -4 0 -13 9 -20 20 -14 23 -7 26 14 6z m-131 -6 c3 -5 1
-10 -4 -10 -6 0 -11 5 -11 10 0 6 2 10 4 10 3 0 8 -4 11 -10z m149 -71 c-3 -5
-10 -7 -15 -3 -5 3 -7 10 -3 15 3 5 10 7 15 3 5 -3 7 -10 3 -15z m52 -26 c-8
-8 -36 10 -36 25 0 13 3 12 20 -3 11 -10 18 -20 16 -22z m4199 -13 c3 -5 1
-10 -4 -10 -6 0 -11 5 -11 10 0 6 2 10 4 10 3 0 8 -4 11 -10z m-4305 -30 c8
-5 11 -12 7 -16 -4 -4 -15 0 -24 9 -18 18 -8 23 17 7z m4287 -27 c-8 -7 -37 9
-31 19 3 5 12 4 20 -3 8 -6 13 -14 11 -16z m-4197 -23 c0 -5 -4 -10 -9 -10 -6
0 -13 5 -16 10 -3 6 1 10 9 10 9 0 16 -4 16 -10z m1960 -34 c0 -3 -4 -8 -10
-11 -5 -3 -10 -1 -10 4 0 6 5 11 10 11 6 0 10 -2 10 -4z m1352 -58 c-9 -9 -42
-1 -42 12 0 4 12 5 26 2 15 -3 22 -8 16 -14z m738 1 c0 -6 -4 -7 -10 -4 -5 3
-10 11 -10 16 0 6 5 7 10 4 6 -3 10 -11 10 -16z m-3690 1 c0 -5 -4 -10 -10
-10 -5 0 -10 5 -10 10 0 6 5 10 10 10 6 0 10 -4 10 -10z m3000 0 c0 -5 -5 -10
-11 -10 -5 0 -7 5 -4 10 3 6 8 10 11 10 2 0 4 -4 4 -10z m-686 -35 c-4 -8 -12
-15 -20 -15 -20 0 -17 18 4 23 9 3 18 5 19 6 1 0 0 -6 -3 -14z m28 -7 c-7 -7
-12 -8 -12 -2 0 14 12 26 19 19 2 -3 -1 -11 -7 -17z m1108 12 c0 -5 -5 -10
-11 -10 -5 0 -7 5 -4 10 3 6 8 10 11 10 2 0 4 -4 4 -10z m-3200 -10 c0 -5 -5
-10 -11 -10 -5 0 -7 5 -4 10 3 6 8 10 11 10 2 0 4 -4 4 -10z m190 0 c0 -5 -5
-10 -11 -10 -5 0 -7 5 -4 10 3 6 8 10 11 10 2 0 4 -4 4 -10z m30 0 c0 -5 -2
-10 -4 -10 -3 0 -8 5 -11 10 -3 6 -1 10 4 10 6 0 11 -4 11 -10z m80 6 c0 -2
-7 -9 -15 -16 -13 -11 -14 -10 -9 4 5 14 24 23 24 12z m70 0 c0 -3 -4 -8 -10
-11 -5 -3 -10 -1 -10 4 0 6 5 11 10 11 6 0 10 -2 10 -4z m1630 -11 c-7 -9 -15
-13 -19 -10 -3 3 1 10 9 15 21 14 24 12 10 -5z m-210 -10 c0 -11 -29 -11 -33
-1 -4 10 1 12 14 9 10 -3 19 -7 19 -8z m-165 -5 c3 -6 -4 -10 -17 -10 -18 0
-20 2 -8 10 19 12 18 12 25 0z m75 0 c0 -5 -5 -10 -11 -10 -5 0 -7 5 -4 10 3
6 8 10 11 10 2 0 4 -4 4 -10z m-183 -6 c-3 -3 -12 -4 -19 -1 -8 3 -5 6 6 6 11
1 17 -2 13 -5z m63 -4 c0 -5 -2 -10 -4 -10 -3 0 -8 5 -11 10 -3 6 -1 10 4 10
6 0 11 -4 11 -10z m165 -8 c-3 -3 -11 0 -18 7 -9 10 -8 11 6 5 10 -3 15 -9 12
-12z m-115 -22 c0 -5 -4 -10 -10 -10 -5 0 -10 5 -10 10 0 6 5 10 10 10 6 0 10
-4 10 -10z m-360 -4 c0 -3 -4 -8 -10 -11 -5 -3 -10 -1 -10 4 0 6 5 11 10 11 6
0 10 -2 10 -4z"/>
<path d="M5015 3750 c-3 -5 -1 -10 4 -10 6 0 11 5 11 10 0 6 -2 10 -4 10 -3 0
-8 -4 -11 -10z"/>
<path d="M7925 1429 c-11 -17 -2 -18 19 -3 17 12 17 14 4 14 -9 0 -20 -5 -23
-11z"/>
<path d="M7227 826 c-6 -15 1 -26 15 -26 11 0 10 27 -1 34 -5 3 -11 0 -14 -8z"/>
<path d="M4070 476 c0 -2 7 -6 15 -10 8 -3 15 -1 15 4 0 6 -7 10 -15 10 -8 0
-15 -2 -15 -4z"/>
</g>
</svg>
